<svg width="938" height="985" viewBox="0 0 938 985" fill="none" xmlns="http://www.w3.org/2000/svg">
<g opacity="0.4">
<path d="M105.265 385.619C102.019 399.816 99.4613 414.283 97.6905 428.971C106.938 402.399 118.743 377.008 132.786 353.068C159.471 307.576 198.477 266.389 241.148 233.026C149.879 331.515 139.328 425.625 139.328 473.701C139.328 563.506 161.512 583.459 200.076 583.632H200.543C231.926 583.632 247.813 575.931 277.179 575.931C304.06 575.931 331.163 584.936 355.216 612.935C357.995 616.158 355.708 621.202 351.453 621.202H299.781C282.294 621.202 267.021 631.929 267.021 654.319C267.021 676.708 303.15 740.408 377.4 744.148L415.988 745.206C429.097 745.206 441.247 752.095 447.985 763.339L474.031 806.814L482.27 820.567C482.467 820.617 482.663 820.666 482.885 820.715L533.229 904.762C542.501 920.238 537.484 940.29 522.014 949.566C506.52 958.841 486.475 953.822 477.203 938.322L434.532 861.656C433.106 859.073 429.983 857.965 427.253 859.023C424.055 860.254 422.58 863.944 424.055 867.044L457.135 937.091C462.816 949.123 457.651 963.492 445.649 969.175C443.829 970.036 441.935 970.651 440.042 971.02C437.41 971.119 434.778 971.217 432.122 971.291C424.277 970.233 417.144 965.337 413.529 957.685L367.882 860.795C366.677 858.261 363.8 857.006 361.119 857.867L360.971 857.916C357.725 858.949 356.102 862.517 357.43 865.617C365.915 885.399 392.968 949.295 392.968 949.295C395.944 956.356 395.329 964.057 391.911 970.282C389.427 974.883 385.393 978.697 380.204 980.911C367.956 986.078 353.79 980.37 348.625 968.092L347.1 964.476L310.799 878.731C309.791 876.369 307.184 875.164 304.749 875.951C302.068 876.812 300.642 879.74 301.625 882.372L327.425 951.559C328.556 954.536 329.023 957.636 328.925 960.638C328.679 970.159 322.752 979.041 313.283 982.584C300.789 987.234 286.918 980.887 282.27 968.437L270.145 935.861C270.145 935.861 262.324 915.465 259.963 908.576C252.708 887.416 242.452 883.947 238.345 881.684C237.287 881.093 236.869 879.715 237.336 878.583C240.607 870.784 242.132 860.106 237.361 846.623C234.336 838.085 224.252 829.523 215.792 826.595C214.537 826.153 213.775 824.873 214.119 823.594C215.349 818.796 215.447 809.446 213.382 801.155C209.496 785.556 197.789 773.746 182.663 771.827C181.04 771.63 180.081 769.932 180.72 768.407C182.516 764.126 183.5 759.451 183.5 754.604C183.5 751.922 183.204 749.167 182.565 746.411C178.212 727.712 159.397 716.124 140.484 719.47L90.5336 728.278H90.386C81.3354 729.877 72.2601 725.67 67.4642 717.846C55.8804 698.999 46.6821 680.989 37.5085 659.436C-0.0468065 570.936 -11.5077 468.731 12.7914 362.344C52.7077 187.607 190.484 50.9568 365.398 12.0826C578.95 -35.3538 775.555 61.3642 876.736 223.775C797.666 117.387 671.03 48.4964 528.335 48.4964C322.014 48.4964 149.289 192.602 105.315 385.693L105.265 385.619Z" fill="#555555"/>
<path d="M937.951 572.461C916.111 676.191 860.381 767.422 782.909 834.025C729.54 879.911 665.841 914.135 595.772 932.687L595.575 932.736C584.213 935.762 572.211 931.063 565.915 921.098C564.709 919.204 563.48 917.235 562.201 915.242C551.035 897.577 537.705 876.516 524.4 855.504C517.784 845.023 511.143 834.591 504.823 824.602C484.532 792.666 467.095 765.331 461.365 756.67C444.887 731.796 435.565 729.852 388.861 729.852C306.102 729.852 280.942 664.553 280.942 655.917C280.942 647.281 283.721 636.775 301.896 636.775H481.901C506.151 636.775 512.693 637.243 522.949 650.775C533.229 664.282 590.066 756.646 640.435 756.646C685.811 756.646 786.795 662.978 805.339 533.168C809.618 555.14 811.856 577.8 811.856 600.952C811.856 665.217 794.64 725.669 764.365 778.322C763.627 779.65 762.84 780.93 762.078 782.234C767.439 778.42 772.702 774.508 777.843 770.448C852.83 724.488 910.159 654.736 938 572.411L937.951 572.461Z" fill="#555555"/>
<path d="M176.214 782.438L110.237 794.076C96.5797 796.485 87.4603 809.514 89.8685 823.177L89.9668 823.734C92.3749 837.397 105.399 846.52 119.056 844.111L185.033 832.473C198.691 830.064 207.81 817.035 205.402 803.372L205.304 802.815C202.895 789.152 189.872 780.029 176.214 782.438Z" fill="#555555"/>
<path d="M202.315 835.781L147.746 845.406C134.089 847.816 124.969 860.845 127.377 874.507L127.476 875.065C129.884 888.728 142.908 897.851 156.565 895.442L211.134 885.816C224.792 883.407 233.911 870.378 231.503 856.715L231.405 856.157C228.996 842.494 215.973 833.371 202.315 835.781Z" fill="#555555"/>
<path d="M224.304 889.821L178.987 897.815C165.33 900.224 156.21 913.253 158.619 926.916L158.717 927.473C161.125 941.136 174.149 950.259 187.806 947.85L233.123 939.856C246.781 937.447 255.9 924.418 253.492 910.755L253.394 910.198C250.985 896.535 237.962 887.412 224.304 889.821Z" fill="#555555"/>
<path d="M144.7 729.262L90.8089 738.768C77.1514 741.177 68.032 754.206 70.4401 767.869L70.5384 768.426C72.9466 782.089 85.9704 791.212 99.628 788.803L153.519 779.297C167.176 776.888 176.296 763.859 173.887 750.196L173.789 749.638C171.381 735.975 158.357 726.852 144.7 729.262Z" fill="#555555"/>
</g>
</svg>
