<svg  viewBox="0 0 1920 1959" fill="none" xmlns="http://www.w3.org/2000/svg">
  <path fill-rule="evenodd" clip-rule="evenodd" d="M2041 0C1926.53 289.904 1678.08 448.852 1466.13 510.332C1696.58 422.361 1869.54 72.4761 1859.04 0C1820.55 209.431 1476.13 465.846 1015.74 465.846C555.344 465.846 295.904 479.342 41.4624 771.745C298.403 596.803 462.865 617.796 629.826 645.287C369.022 632.289 85.1081 797.215 -51.8207 1082.66L-121 1155.5V1298.57V1958.76C-6.52649 1668.86 241.916 1509.91 453.867 1448.43C223.421 1536.4 50.4601 1886.29 60.9576 1958.76C99.4487 1749.33 443.87 1492.92 904.263 1492.92C1364.66 1492.92 1624.1 1479.42 1878.54 1187.02C1621.6 1361.96 1457.14 1340.97 1290.17 1313.47C1545.53 1326.2 1823.03 1168.36 1963.04 893.843L2041 825.5V792.761V660.19V0Z" fill="url(#paint0_linear_25_69)" />
  <defs>
    <linearGradient id="paint0_linear_25_69" x1="2041" y1="0" x2="91.7451" y2="2151.51" gradientUnits="userSpaceOnUse">
      <stop stop-color="#17BFF0" />
      <stop offset="1" stop-color="#00317D" />
    </linearGradient>
  </defs>
</svg>