<svg width="142" height="149" viewBox="0 0 142 149" fill="none" xmlns="http://www.w3.org/2000/svg">
<path d="M16.3769 58.4926C15.8881 60.6286 15.5031 62.8054 15.2365 65.0154C16.6287 61.0173 18.4059 57.1969 20.5201 53.5949C24.5374 46.75 30.4097 40.553 36.8336 35.5331C23.0934 50.352 21.505 64.512 21.505 71.7456C21.505 85.2577 24.8447 88.26 30.6503 88.2859H30.7207C35.4451 88.2859 37.837 87.1272 42.2579 87.1272C46.3048 87.1272 50.385 88.4821 54.0062 92.6949C54.4245 93.1799 54.0802 93.9388 53.4397 93.9388H45.6606C43.028 93.9388 40.7287 95.5528 40.7287 98.9216C40.7287 102.29 46.1678 111.875 57.3459 112.437L63.1552 112.597C65.1287 112.597 66.9578 113.633 67.9723 115.325L71.8933 121.866L73.1337 123.936C73.1633 123.943 73.1929 123.95 73.2262 123.958L80.8054 136.604C82.2013 138.932 81.4459 141.949 79.117 143.345C76.7844 144.741 73.7668 143.985 72.3709 141.653L65.947 130.118C65.7322 129.729 65.262 129.563 64.851 129.722C64.3697 129.907 64.1475 130.462 64.3697 130.929L69.3496 141.468C70.2049 143.278 69.4274 145.44 67.6205 146.295C67.3465 146.425 67.0614 146.518 66.7763 146.573C66.3802 146.588 65.984 146.603 65.5841 146.614C64.403 146.455 63.3292 145.718 62.785 144.567L55.913 129.988C55.7316 129.607 55.2984 129.418 54.8948 129.548L54.8726 129.555C54.3838 129.711 54.1395 130.247 54.3394 130.714C55.6168 133.69 59.6896 143.304 59.6896 143.304C60.1376 144.367 60.0451 145.525 59.5304 146.462C59.1564 147.154 58.5492 147.728 57.768 148.061C55.9241 148.839 53.7914 147.98 53.0139 146.133L52.7843 145.588L47.3193 132.687C47.1675 132.332 46.775 132.15 46.4085 132.269C46.0049 132.398 45.7901 132.839 45.9382 133.235L49.8223 143.645C49.9926 144.093 50.0629 144.559 50.0481 145.011C50.0111 146.443 49.1188 147.78 47.6933 148.313C45.8124 149.013 43.7241 148.058 43.0243 146.184L41.199 141.283C41.199 141.283 40.0215 138.214 39.6661 137.178C38.5738 133.994 37.0299 133.472 36.4115 133.131C36.2523 133.042 36.1894 132.835 36.2597 132.665C36.7522 131.491 36.9817 129.885 36.2634 127.856C35.808 126.571 34.2899 125.283 33.0163 124.843C32.8274 124.776 32.7127 124.583 32.7645 124.391C32.9496 123.669 32.9644 122.262 32.6534 121.015C32.0684 118.668 30.306 116.891 28.0289 116.602C27.7845 116.572 27.6401 116.317 27.7364 116.088C28.0067 115.443 28.1548 114.74 28.1548 114.011C28.1548 113.607 28.1103 113.193 28.0141 112.778C27.3587 109.964 24.5263 108.221 21.679 108.724L14.159 110.05H14.1368C12.7743 110.29 11.408 109.657 10.686 108.48C8.94212 105.644 7.55736 102.935 6.1763 99.6916C0.522464 86.3757 -1.20294 70.9978 2.45521 54.9906C8.46449 28.6993 29.2063 8.13872 55.539 2.28965C87.6885 -4.84771 117.287 9.70465 132.519 34.1412C120.615 18.134 101.551 7.76853 80.0686 7.76853C49.0077 7.76853 23.0045 29.4508 16.3843 58.5037L16.3769 58.4926Z" fill="white"/>
<path d="M141.735 86.6049C138.447 102.212 130.057 115.939 118.394 125.96C110.359 132.864 100.77 138.014 90.221 140.805L90.1914 140.812C88.4808 141.268 86.674 140.561 85.7261 139.061C85.5447 138.776 85.3595 138.48 85.167 138.18C83.486 135.522 81.4792 132.354 79.4761 129.192C78.4801 127.615 77.4805 126.045 76.5289 124.542C73.4743 119.737 70.8491 115.624 69.9864 114.321C67.5057 110.579 66.1024 110.286 59.0713 110.286C46.6121 110.286 42.8244 100.461 42.8244 99.1619C42.8244 97.8625 43.2427 96.2818 45.979 96.2818H73.0781C76.7288 96.2818 77.7137 96.3521 79.2577 98.3882C80.8054 100.421 89.362 114.318 96.9449 114.318C103.776 114.318 118.979 100.224 121.771 80.6929C122.415 83.9987 122.752 87.4082 122.752 90.8917C122.752 100.561 120.16 109.657 115.602 117.579C115.491 117.779 115.373 117.971 115.258 118.168C116.065 117.594 116.857 117.005 117.631 116.394C128.92 109.479 137.551 98.9842 141.742 86.5975L141.735 86.6049Z" fill="white"/>
<path d="M27.0579 118.199L17.1254 119.95C15.0693 120.313 13.6964 122.273 14.0589 124.329L14.0737 124.413C14.4362 126.468 16.3969 127.841 18.453 127.478L28.3856 125.727C30.4417 125.365 31.8146 123.405 31.4521 121.349L31.4373 121.265C31.0748 119.209 29.114 117.837 27.0579 118.199Z" fill="white"/>
<path d="M30.9874 126.224L22.7722 127.673C20.7161 128.035 19.3432 129.996 19.7058 132.051L19.7206 132.135C20.0831 134.191 22.0438 135.564 24.0999 135.201L32.3151 133.753C34.3712 133.39 35.7441 131.43 35.3815 129.374L35.3667 129.29C35.0042 127.235 33.0435 125.862 30.9874 126.224Z" fill="white"/>
<path d="M34.2978 134.356L27.4755 135.559C25.4194 135.921 24.0465 137.881 24.409 139.937L24.4238 140.021C24.7864 142.077 26.7471 143.449 28.8032 143.087L35.6255 141.884C37.6815 141.522 39.0544 139.561 38.6919 137.506L38.6771 137.422C38.3146 135.366 36.3539 133.993 34.2978 134.356Z" fill="white"/>
<path d="M22.3136 110.198L14.2005 111.628C12.1444 111.991 10.7715 113.951 11.1341 116.007L11.1489 116.091C11.5114 118.147 13.4721 119.519 15.5282 119.157L23.6413 117.726C25.6974 117.364 27.0703 115.404 26.7077 113.348L26.6929 113.264C26.3304 111.208 24.3697 109.836 22.3136 110.198Z" fill="white"/>
</svg>
