<svg width="202" height="93" viewBox="0 0 202 93" fill="none" xmlns="http://www.w3.org/2000/svg">
<path d="M0.0574646 8.05523C0.0574646 6.87431 0.294423 5.84887 0.768353 4.98261C1.79397 2.69851 4.39318 1.19922 6.91463 1.19922H26.3013C37.2572 1.19922 45.925 5.06035 45.925 16.8807C45.925 21.5303 43.559 25.2323 39.5417 27.4386C44.4291 29.4081 47.1061 34.2946 47.1061 39.4144C47.1061 51.7086 37.5682 56.1213 26.9308 56.1213H2.02723C1.08307 56.1213 0.0574646 55.0959 0.0574646 54.1519V8.05523ZM24.6463 22.9482C28.1933 22.9482 30.637 20.901 30.637 17.2731C30.637 15.4628 30.0854 14.0413 28.982 13.0973C27.8009 12.231 26.3828 11.7572 24.6463 11.7572H10.4617C12.7462 11.7572 14.7974 13.5674 14.7974 15.933V20.6604C14.7974 21.9227 15.9785 22.9445 17.1634 22.9445H24.65L24.6463 22.9482ZM25.3572 45.4856C29.2189 45.4856 31.7404 43.357 31.7404 39.4181C31.7404 35.4793 29.0597 33.1915 25.3572 33.1915H10.4617C12.7462 33.1915 14.7974 35.0054 14.7974 37.3673V43.1201C14.7974 44.4602 15.9008 45.4819 17.1634 45.4819H25.3609L25.3572 45.4856Z" fill="white"/>
<path d="M55.8553 8.13286C55.8553 4.27173 58.8507 1.27686 62.7125 1.27686H94.8693C96.1319 1.27686 96.9169 2.06537 96.9169 3.32403V11.124C96.9169 11.6756 96.7576 12.1495 96.3652 12.4641C95.9727 12.8565 95.4988 13.0157 94.8693 13.0157H65.7893C68.1552 13.0157 70.125 14.9074 70.125 17.2693V20.5788C70.125 21.9189 71.1506 23.0221 72.491 23.0221H89.6709C90.9298 23.0221 91.7184 23.8106 91.7184 25.0693V32.1622C91.7184 33.3431 90.852 34.2094 89.6709 34.2094H65.7893C67.996 34.2094 70.125 36.0233 70.125 38.3074V42.0131C70.125 43.3532 71.1506 44.4564 72.491 44.4564H95.5025C96.8428 44.4564 97.55 45.1671 97.55 46.5036V54.2258C97.55 54.8551 97.3908 55.329 96.9983 55.6437C96.6058 56.0361 96.0541 56.1953 95.5025 56.1953H57.8325C56.8883 56.1953 55.8627 55.1698 55.8627 54.2258V8.12916L55.8553 8.13286Z" fill="white"/>
<path d="M127.182 56.988C117.014 56.988 103.855 53.1269 103.222 41.1511C103.222 40.6772 103.382 40.2848 103.774 39.9701C104.089 39.6555 104.485 39.4963 104.955 39.4963H115.437C115.752 39.4963 116.067 39.4963 116.303 39.574C116.54 39.6518 116.696 39.7332 116.933 39.811C117.325 40.0479 117.722 40.3625 118.273 40.9141C120.006 44.2237 123.631 45.2491 127.178 45.2491C128.989 45.2491 131.117 45.1714 132.773 44.3829C133.639 44.0682 134.35 43.5944 134.979 42.8873C135.609 42.2579 135.923 41.3917 135.923 40.3662C135.923 37.4491 133.402 36.5829 131.036 35.7943C130.17 35.4797 129.066 35.165 127.881 34.8503C117.714 32.9587 104.633 30.3599 104.633 17.2772C104.633 5.14222 116.296 0.570312 126.623 0.570312C130.325 0.570312 133.95 1.1219 137.497 2.38426C143.014 4.66837 148.845 9.55494 149.242 15.9371C149.242 16.3295 149.082 16.7256 148.768 17.118C148.375 17.5104 147.979 17.6696 147.587 17.6696H136.553C135.45 17.6696 134.583 17.1958 133.954 16.2518C133.639 15.1486 132.85 14.2046 131.51 13.4161C130.092 12.7053 128.437 12.3129 126.623 12.3129C124.338 12.3129 121.735 12.6276 120.317 14.597C119.925 15.2263 119.688 16.0148 119.688 16.9625C119.688 18.4581 120.476 19.6427 122.054 20.509C123.631 21.3753 126.545 22.2415 130.881 23.1078C140.97 25.0772 151.134 27.5982 151.134 39.6555C151.134 52.4975 137.893 56.9917 127.174 56.9917L127.182 56.988Z" fill="white"/>
<path d="M199.374 1.19922C200.556 1.19922 201.422 1.98774 201.422 3.16866V11.9941C201.422 13.175 200.556 13.9635 199.374 13.9635H181.091C183.298 13.9635 185.582 15.7775 185.582 18.0616V54.1519C185.582 54.7035 185.345 55.1773 184.953 55.492C184.561 55.8844 184.087 56.0436 183.535 56.0436H172.579C172.027 56.0436 171.553 55.8844 171.161 55.492C170.768 55.1773 170.531 54.7035 170.531 54.1519V16.3291C170.531 14.989 169.506 13.9635 168.165 13.9635H156.739C155.636 13.9635 154.688 13.0973 154.688 11.9941V7.97378C154.688 4.27184 157.843 1.19922 161.545 1.19922H199.374Z" fill="white"/>
<path d="M0.142678 83.4864C0.109354 82.8608 0.109344 81.9427 0.109344 80.6581C0.109344 79.3735 0.109354 78.4221 0.142678 77.7965C0.338914 71.6809 4.54874 68.7563 10.3692 68.7563C16.1896 68.7563 20.3661 71.6846 20.5624 77.7965C20.5957 79.0774 20.629 80.0325 20.629 80.6581C20.629 84.112 20.629 87.6955 17.7336 90.161C15.9231 91.6751 13.4905 92.4303 10.3692 92.4303C4.51542 92.4303 0.338914 89.6687 0.142678 83.4864ZM14.1828 83.2902C14.2162 82.0093 14.2495 81.1209 14.2495 80.5619C14.2495 80.0029 14.2162 79.1144 14.1828 77.9002C14.1162 75.4347 12.998 73.6911 10.3692 73.6911C7.74036 73.6911 6.58885 75.4013 6.52221 77.9002C6.48888 78.5258 6.4889 79.4106 6.4889 80.5619C6.4889 81.7132 6.48888 82.6646 6.52221 83.2902C6.58885 85.7557 7.76998 87.4993 10.3692 87.4993C12.9684 87.4993 14.1162 85.7224 14.1828 83.2902Z" fill="white"/>
<path d="M24.413 71.9471C24.413 71.1919 24.7759 70.4033 25.3016 69.874C25.5645 69.6444 25.8607 69.4482 26.2236 69.2817C26.5864 69.1484 26.9122 69.0854 27.2751 69.0854H40.46C40.8858 69.0854 41.3153 69.5112 41.3153 69.9406V73.4241C41.3153 73.6537 41.2153 73.8499 41.0524 73.9831C40.8895 74.146 40.6895 74.2126 40.46 74.2126H28.6228C29.6077 74.2126 30.4297 75.0012 30.4297 75.9896V78.7846H38.3199C38.879 78.7846 39.1752 79.0807 39.1752 79.6397V83.0936C39.1752 83.3565 39.1085 83.5527 38.9456 83.6859C38.7827 83.8488 38.5828 83.9155 38.3199 83.9155H28.6191C29.5707 83.9155 30.426 84.704 30.426 85.6591V91.1824C30.426 91.4119 30.3593 91.6081 30.1964 91.7747C30.0631 91.9376 29.8669 92.0042 29.604 92.0042H25.2313C24.7388 92.0042 24.4093 91.6747 24.4093 91.1824V71.9471H24.413Z" fill="white"/>
<path d="M44.8364 71.9471C44.8364 71.1919 45.1993 70.4033 45.725 69.874C45.9879 69.6444 46.2841 69.4482 46.647 69.2817C47.0098 69.1484 47.3357 69.0854 47.6985 69.0854H60.8834C61.3092 69.0854 61.7387 69.5112 61.7387 69.9406V73.4241C61.7387 73.6537 61.6387 73.8499 61.4758 73.9831C61.3129 74.146 61.1129 74.2126 60.8834 74.2126H49.0462C50.0311 74.2126 50.8531 75.0012 50.8531 75.9896V78.7846H58.7433C59.3024 78.7846 59.5986 79.0807 59.5986 79.6397V83.0936C59.5986 83.3565 59.5319 83.5527 59.369 83.6859C59.2061 83.8488 59.0062 83.9155 58.7433 83.9155H49.0426C49.9941 83.9155 50.8494 84.704 50.8494 85.6591V91.1824C50.8494 91.4119 50.7828 91.6081 50.6198 91.7747C50.4865 91.9376 50.2903 92.0042 50.0274 92.0042H45.6547C45.1623 92.0042 44.8327 91.6747 44.8327 91.1824V71.9471H44.8364Z" fill="white"/>
<path d="M65.2265 71.9803C65.2265 70.3699 66.478 69.1187 68.0886 69.1187H81.5068C82.0325 69.1187 82.362 69.4481 82.362 69.9738V73.2278C82.362 73.4573 82.2954 73.6535 82.1325 73.7868C81.9696 73.9497 81.7696 74.0163 81.5068 74.0163H69.3734C70.3583 74.0163 71.1803 74.8048 71.1803 75.7933V77.1741C71.1803 77.7331 71.606 78.1921 72.1651 78.1921H79.3333C79.8591 78.1921 80.1886 78.5216 80.1886 79.0473V82.0051C80.1886 82.4975 79.8258 82.8603 79.3333 82.8603H69.3697C70.2916 82.8603 71.1766 83.6155 71.1766 84.5706V86.1143C71.1766 86.6733 71.6024 87.1323 72.1615 87.1323H81.7622C82.3213 87.1323 82.6175 87.4285 82.6175 87.9875V91.2082C82.6175 91.471 82.5509 91.6672 82.388 91.8005C82.2251 91.9634 81.9918 92.03 81.7622 92.03H66.0448C65.6486 92.03 65.2228 91.6043 65.2228 91.2082V71.9729L65.2265 71.9803Z" fill="white"/>
<path d="M100.579 92.0375C99.953 92.0375 99.5272 91.7413 99.2643 91.1824L95.9097 84.6077C95.7135 84.2449 95.4173 84.082 95.0211 84.082H90.715C91.2741 84.082 91.6999 84.2782 92.0294 84.641C92.3257 85.0371 92.4886 85.4295 92.4886 85.8256V91.249C92.4886 91.4785 92.4219 91.6747 92.259 91.808C92.0961 91.9709 91.8962 92.0375 91.6666 92.0375H87.1606C86.7977 92.0375 86.3386 91.6414 86.3386 91.249V71.984C86.3386 70.3737 87.5901 69.1558 89.2007 69.1558H96.1726C101.238 69.1558 105.381 71.2252 105.381 76.6522C105.381 79.3176 104.163 81.4536 101.863 82.7678C101.701 82.8678 101.601 82.9973 101.601 83.1639C101.567 83.3268 101.601 83.4268 101.667 83.5267L105.81 91.0232C105.877 91.1564 105.91 91.286 105.91 91.386C105.91 91.5488 105.844 91.7154 105.714 91.845C105.551 91.9783 105.385 92.0412 105.222 92.0412H100.586L100.579 92.0375ZM98.2424 74.5458C97.6833 74.0868 96.9946 73.8572 96.1393 73.8572H90.4818C91.4333 73.8572 92.2886 74.6124 92.2886 75.6009V78.2626C92.2886 78.5254 92.3886 78.7549 92.5848 78.9511C92.7477 79.1473 92.981 79.2473 93.2735 79.2473H96.1356C97.8462 79.2473 99.031 78.3921 99.031 76.6152C99.031 75.7267 98.7681 75.0382 98.2424 74.5421V74.5458Z" fill="white"/>
<path d="M116.07 72.0472C116.07 70.4701 117.351 69.1855 118.932 69.1855H125.508C131.525 69.1855 135.701 71.9805 135.835 78.1295C135.868 78.4256 135.868 78.7884 135.868 79.2141V82.0424C135.868 82.4681 135.868 82.8309 135.835 83.1271C135.638 89.1094 132.251 92.1043 125.675 92.1043H116.896C116.403 92.1043 116.074 91.7748 116.074 91.2825V72.0472H116.07ZM125.508 87.2029C128.337 87.2029 129.522 85.8221 129.585 83.0605C129.618 82.7643 129.618 82.4015 129.651 81.9758V79.2474C129.618 78.8513 129.618 78.4922 129.585 78.1961C129.518 75.4678 128.104 74.0869 125.342 74.0869H120.41C121.332 74.0869 122.22 74.8421 122.22 75.7972V86.1849C122.22 86.4811 122.32 86.7106 122.516 86.9068C122.679 87.103 122.942 87.2029 123.238 87.2029H125.508Z" fill="white"/>
<path d="M139.748 71.9803C139.748 70.3699 141 69.1187 142.61 69.1187H156.028C156.554 69.1187 156.884 69.4481 156.884 69.9738V73.2278C156.884 73.4573 156.817 73.6535 156.654 73.7868C156.491 73.9497 156.291 74.0163 156.028 74.0163H143.895C144.88 74.0163 145.702 74.8048 145.702 75.7933V77.1741C145.702 77.7331 146.128 78.1921 146.687 78.1921H153.855C154.381 78.1921 154.71 78.5216 154.71 79.0473V82.0051C154.71 82.4975 154.347 82.8603 153.855 82.8603H143.891C144.813 82.8603 145.698 83.6155 145.698 84.5706V86.1143C145.698 86.6733 146.124 87.1323 146.683 87.1323H156.284C156.843 87.1323 157.139 87.4285 157.139 87.9875V91.2082C157.139 91.471 157.073 91.6672 156.91 91.8005C156.747 91.9634 156.513 92.03 156.284 92.03H140.566C140.17 92.03 139.745 91.6043 139.745 91.2082V71.9729L139.748 71.9803Z" fill="white"/>
<path d="M158.853 91.412C158.853 91.2492 158.853 91.1492 158.887 91.1159L166.514 70.1407C166.744 69.515 167.203 69.1855 167.829 69.1855H172.927C173.553 69.1855 174.012 69.515 174.241 70.1407L181.869 91.1159C181.902 91.1492 181.902 91.2492 181.902 91.412C181.902 91.7748 181.572 92.1006 181.213 92.1006H176.97C176.411 92.1006 176.048 91.8711 175.852 91.3787L174.141 86.7439C171.413 87.7619 168.454 88.1913 165.559 88.1913H164.441C164.804 88.258 165.066 88.4875 165.296 88.817C165.526 89.1798 165.559 89.6388 165.363 90.1312L164.904 91.3787C164.707 91.8711 164.344 92.1006 163.785 92.1006H159.542C159.379 92.1006 159.213 92.034 159.05 91.9044C158.916 91.7415 158.853 91.5749 158.853 91.412ZM170.361 74.9384L167.403 83.4862C169.08 83.3862 171.383 82.9938 172.894 82.172L170.361 74.9384Z" fill="white"/>
<path d="M184.572 71.9137C184.572 70.3996 185.919 69.0854 187.434 69.0854H190C190.229 69.0854 190.425 69.1521 190.559 69.315C190.722 69.4779 190.788 69.6778 190.788 69.9073V85.8516C190.788 86.0145 190.888 86.2477 191.051 86.4772C191.214 86.74 191.477 86.8733 191.806 86.8733H200.619C200.848 86.8733 201.078 86.9399 201.244 87.0695C201.407 87.2324 201.474 87.4323 201.474 87.6951V91.1787C201.474 91.4415 201.407 91.6377 201.244 91.771C201.081 91.9339 200.848 92.0005 200.619 92.0005H185.394C184.997 92.0005 184.572 91.5748 184.572 91.1787V71.9137Z" fill="white"/>
</svg>
