<svg  viewBox="0 0 140 140" fill="none" xmlns="http://www.w3.org/2000/svg">
<g filter="url(#filter0_dd_42_468)">
<rect x="20" y="20" width="100" height="100" rx="50" fill="url(#paint0_linear_42_468)" shape-rendering="crispEdges"/>
<path d="M95.8015 45.3875L95.837 45.3556L95.8302 45.3495C96.2724 44.9165 96.2682 44.2473 95.8023 43.828L94.0666 42.2685C93.5999 41.85 92.855 41.8462 92.3731 42.2434L92.3655 42.2366L84.8899 48.9539C84.4106 49.3838 84.4106 50.0827 84.8899 50.5134L86.6257 52.0736C87.105 52.5043 87.8829 52.5043 88.3622 52.0736L95.8015 45.3875Z" fill="white"/>
<path d="M68.9546 45.6601L71.409 45.6609C72.0702 45.6609 72.6053 45.1899 72.6315 44.6019H72.6366V35.1045C72.6366 34.4953 72.0871 34.0015 71.409 34.0015V34H68.9546C68.2766 34 67.727 34.4945 67.727 35.1037V44.6019H67.7321C67.7591 45.1899 68.2935 45.6601 68.9546 45.6601Z" fill="white"/>
<path d="M105.364 61.4015C105.364 60.8068 104.841 60.3267 104.187 60.3031V60.2986H93.6151C92.937 60.2986 92.3875 60.7916 92.3875 61.4015V63.6067C92.3875 64.2167 92.937 64.7104 93.6151 64.7104H104.187V64.7059C104.841 64.6816 105.364 64.2007 105.364 63.6067V61.4015Z" fill="white"/>
<path d="M70.1822 49.4028C60.243 49.4028 52.1866 56.6412 52.1866 65.5712C52.1866 69.0715 53.437 72.303 55.5413 74.9495H55.5346C58.2181 78.7111 59.8946 83.6941 60.0181 89.1839C60.2337 89.5022 60.6192 89.7179 61.0639 89.7179C61.1113 89.7179 61.1561 89.7103 61.2017 89.705V89.7179H79.1019V89.705C79.1475 89.7095 79.1923 89.7179 79.2388 89.7179C79.725 89.7179 80.1409 89.4619 80.3405 89.0935C80.4884 83.3326 82.3451 78.133 85.2805 74.3273C87.1016 71.8024 88.1779 68.8049 88.1779 65.572C88.1779 56.6412 80.1215 49.4028 70.1822 49.4028Z" fill="white"/>
<path d="M79.2388 99.2236C79.1915 99.2236 79.1475 99.2312 79.1018 99.2365V99.2236H61.2017V99.2365C61.156 99.232 61.1112 99.2236 61.0639 99.2236C60.3867 99.2236 59.8363 99.7166 59.8363 100.327V102.897C59.8363 103.506 60.3858 104 61.0639 104C61.1112 104 61.156 103.992 61.2017 103.987V104H79.1018V103.988C79.1475 103.992 79.1923 104 79.2388 104C79.9169 104 80.4664 103.506 80.4664 102.897V100.327C80.4664 99.7166 79.9169 99.2236 79.2388 99.2236Z" fill="white"/>
<path d="M79.2388 92.0527C79.1915 92.0527 79.1475 92.0603 79.1018 92.0656V92.0527H61.2017V92.0656C61.156 92.0611 61.1112 92.0527 61.0639 92.0527C60.401 92.0527 59.8633 92.5267 59.8405 93.1185C59.8388 93.1329 59.838 93.1473 59.8363 93.1618V95.7262C59.8363 96.3354 60.3858 96.8292 61.0639 96.8292C61.1112 96.8292 61.156 96.8216 61.2017 96.8163V96.8292H79.1018V96.817C79.1475 96.8216 79.1923 96.83 79.2388 96.83C79.9169 96.83 80.4664 96.3362 80.4664 95.727V93.1557C80.4664 92.5457 79.9169 92.0527 79.2388 92.0527Z" fill="white"/>
<path d="M46.8001 61.1645V61.1599H36.2276C35.5496 61.1599 35 61.6537 35 62.2621V64.468C35 65.0765 35.5496 65.5702 36.2276 65.5702H46.8001V65.5664C47.4537 65.5421 47.9779 65.0613 47.9779 64.4688V62.2621C47.977 61.6696 47.4537 61.1888 46.8001 61.1645Z" fill="white"/>
<path d="M44.9865 45.0074L52.4621 51.7247L52.4697 51.7178C52.9508 52.1151 53.6957 52.1121 54.1624 51.6928L55.8989 50.1325C56.3656 49.7132 56.369 49.0432 55.9268 48.611L55.9344 48.6042L48.458 41.8876C47.9795 41.4577 47.2017 41.4577 46.7223 41.8876L44.9865 43.4471C44.5072 43.8786 44.5072 44.5767 44.9865 45.0074Z" fill="white"/>
</g>
<defs>
<filter id="filter0_dd_42_468" x="0" y="0" width="140" height="140" filterUnits="userSpaceOnUse" color-interpolation-filters="sRGB">
<feFlood flood-opacity="0" result="BackgroundImageFix"/>
<feColorMatrix in="SourceAlpha" type="matrix" values="0 0 0 0 0 0 0 0 0 0 0 0 0 0 0 0 0 0 127 0" result="hardAlpha"/>
<feOffset dy="4"/>
<feGaussianBlur stdDeviation="3.5"/>
<feComposite in2="hardAlpha" operator="out"/>
<feColorMatrix type="matrix" values="0 0 0 0 0 0 0 0 0 0 0 0 0 0 0 0 0 0 0.25 0"/>
<feBlend mode="normal" in2="BackgroundImageFix" result="effect1_dropShadow_42_468"/>
<feColorMatrix in="SourceAlpha" type="matrix" values="0 0 0 0 0 0 0 0 0 0 0 0 0 0 0 0 0 0 127 0" result="hardAlpha"/>
<feOffset/>
<feGaussianBlur stdDeviation="10"/>
<feComposite in2="hardAlpha" operator="out"/>
<feColorMatrix type="matrix" values="0 0 0 0 0 0 0 0 0 0 0 0 0 0 0 0 0 0 0.25 0"/>
<feBlend mode="normal" in2="effect1_dropShadow_42_468" result="effect2_dropShadow_42_468"/>
<feBlend mode="normal" in="SourceGraphic" in2="effect2_dropShadow_42_468" result="shape"/>
</filter>
<linearGradient id="paint0_linear_42_468" x1="120" y1="20" x2="20" y2="120" gradientUnits="userSpaceOnUse">
<stop stop-color="#17BFF0"/>
<stop offset="1" stop-color="#00317D"/>
</linearGradient>
</defs>
</svg>
