<svg width="30" height="22" viewBox="0 0 30 22" fill="none" xmlns="http://www.w3.org/2000/svg">
<path d="M2.74248 11.0688L1.37124 12.4401C0.613925 11.6828 0.613925 10.4549 1.37124 9.69759L2.74248 11.0688ZM12.4401 20.7664C11.6828 21.5237 10.4549 21.5237 9.69759 20.7664L1.37124 12.4401L4.11372 9.69759L12.4401 18.0239C13.1974 18.7813 13.1974 20.0091 12.4401 20.7664ZM1.37124 9.69759L9.69759 1.37124C10.4549 0.613923 11.6828 0.613925 12.4401 1.37124C13.1974 2.12855 13.1974 3.3564 12.4401 4.11372L4.11372 12.4401L1.37124 9.69759ZM2.74248 9.12931H28.0605C29.1316 9.12931 30 9.99766 30 11.0688C30 12.14 29.1316 13.0083 28.0605 13.0083H2.74248V9.12931Z" fill="url(#paint0_linear_290_48)"/>
<defs>
<linearGradient id="paint0_linear_290_48" x1="30" y1="0" x2="8.8468" y2="28.6659" gradientUnits="userSpaceOnUse">
<stop stop-color="#17BFF0"/>
<stop offset="1" stop-color="#00317D"/>
</linearGradient>
</defs>
</svg>
