<svg width="48" height="48" viewBox="0 0 48 48" fill="none" xmlns="http://www.w3.org/2000/svg">
  <path d="M30.495 32.22L33.855 28.86C34.3076 28.4131 34.8801 28.1071 35.5032 27.9793C36.1263 27.8515 36.7731 27.9073 37.365 28.14L41.46 29.775C42.0582 30.0178 42.5712 30.4323 42.9342 30.9662C43.2972 31.5 43.4941 32.1294 43.5 32.775V40.275C43.4965 40.7142 43.4042 41.1481 43.2286 41.5506C43.053 41.9532 42.7978 42.316 42.4782 42.6173C42.1587 42.9186 41.7815 43.1522 41.3694 43.3039C40.9572 43.4556 40.5186 43.5223 40.08 43.5C11.385 41.715 5.59502 17.415 4.50002 8.115C4.44919 7.6583 4.49563 7.19602 4.63629 6.75856C4.77695 6.32111 5.00864 5.91839 5.31612 5.5769C5.6236 5.23542 5.99989 4.96291 6.42025 4.7773C6.84061 4.59168 7.29551 4.49718 7.75502 4.5H15C15.6465 4.50191 16.2777 4.6972 16.8123 5.06074C17.3469 5.42429 17.7606 5.93946 18 6.54L19.635 10.635C19.8754 11.2246 19.9367 11.872 19.8113 12.4962C19.686 13.1205 19.3794 13.6939 18.93 14.145L15.57 17.505C15.57 17.505 17.505 30.6 30.495 32.22Z" fill="url(#paint0_linear_4_66)" />
  <defs>
    <linearGradient id="paint0_linear_4_66" x1="43.5" y1="4.49994" x2="4.49577" y2="43.5199" gradientUnits="userSpaceOnUse">
      <stop stop-color="#17BFF0" />
      <stop offset="1" stop-color="#00317D" />
    </linearGradient>
  </defs>
</svg>