<svg  viewBox="0 0 120 120" fill="none" xmlns="http://www.w3.org/2000/svg">
  <path d="M68.1188 70.275L72.3188 66.075C72.8844 65.5163 73.6002 65.1339 74.379 64.9742C75.1578 64.8144 75.9663 64.8842 76.7063 65.175L81.825 67.2188C82.5728 67.5223 83.2139 68.0404 83.6677 68.7077C84.1215 69.375 84.3676 70.1618 84.375 70.9688V80.3438C84.3707 80.8927 84.2553 81.4351 84.0358 81.9383C83.8163 82.4415 83.4972 82.8951 83.0978 83.2717C82.6984 83.6483 82.2269 83.9402 81.7117 84.1298C81.1965 84.3195 80.6483 84.4029 80.1 84.375C44.2313 82.1438 36.9938 51.7688 35.625 40.1438C35.5615 39.5729 35.6195 38.995 35.7953 38.4482C35.9712 37.9014 36.2608 37.398 36.6451 36.9711C37.0295 36.5443 37.4999 36.2036 38.0253 35.9716C38.5508 35.7396 39.1194 35.6215 39.6938 35.625H48.75C49.5581 35.6274 50.3471 35.8715 51.0154 36.3259C51.6836 36.7804 52.2007 37.4243 52.5 38.175L54.5438 43.2938C54.8442 44.0308 54.9209 44.84 54.7642 45.6203C54.6074 46.4006 54.2243 47.1174 53.6625 47.6813L49.4625 51.8813C49.4625 51.8813 51.8813 68.25 68.1188 70.275Z" fill="url(#paint0_linear_128_12)" />
  <defs>
    <linearGradient id="paint0_linear_128_12" x1="84.375" y1="35.6249" x2="35.6197" y2="84.3999" gradientUnits="userSpaceOnUse">
      <stop stop-color="#17BFF0" />
      <stop offset="1" stop-color="#00317D" />
    </linearGradient>
  </defs>
</svg>