<svg viewBox="0 0 91 92" fill="none" xmlns="http://www.w3.org/2000/svg">
<path fill-rule="evenodd" clip-rule="evenodd" d="M45.5 3.75C22.166 3.75 3.25 22.666 3.25 46C3.25 69.334 22.166 88.25 45.5 88.25C68.834 88.25 87.75 69.334 87.75 46C87.75 22.666 68.834 3.75 45.5 3.75ZM0.25 46C0.25 21.0091 20.5091 0.75 45.5 0.75C70.4909 0.75 90.75 21.0091 90.75 46C90.75 70.9909 70.4909 91.25 45.5 91.25C20.5091 91.25 0.25 70.9909 0.25 46ZM25.25 46C25.25 45.1716 25.9216 44.5 26.75 44.5H44V27.25C44 26.4216 44.6716 25.75 45.5 25.75C46.3284 25.75 47 26.4216 47 27.25V44.5H64.25C65.0785 44.5 65.75 45.1716 65.75 46C65.75 46.8284 65.0785 47.5 64.25 47.5H47V64.75C47 65.5785 46.3284 66.25 45.5 66.25C44.6716 66.25 44 65.5785 44 64.75V47.5H26.75C25.9216 47.5 25.25 46.8284 25.25 46Z" fill="url(#paint0_linear_158_151)"/>
<defs>
<linearGradient id="paint0_linear_158_151" x1="90.75" y1="0.75" x2="0.25" y2="91.25" gradientUnits="userSpaceOnUse">
<stop stop-color="#17BFF0"/>
<stop offset="1" stop-color="#00317D"/>
</linearGradient>
</defs>
</svg>
