<svg  viewBox="0 0 140 140" fill="none" xmlns="http://www.w3.org/2000/svg">
<g filter="url(#filter0_dd_42_452)">
<rect x="20" y="20" width="100" height="100" rx="50" fill="url(#paint0_linear_42_452)" shape-rendering="crispEdges"/>
<rect x="45" y="62.2224" width="50.2502" height="37.7778" rx="4" fill="white"/>
<path d="M90.8806 60.5556C90.8806 71.9081 81.5881 81.1111 70.1251 81.1111C58.6622 81.1111 49.3696 71.9081 49.3696 60.5556C49.3696 49.203 58.6622 40 70.1251 40C81.5881 40 90.8806 49.203 90.8806 60.5556ZM55.0494 60.5556C55.0494 68.8014 61.799 75.486 70.1251 75.486C78.4512 75.486 85.2008 68.8014 85.2008 60.5556C85.2008 52.3097 78.4512 45.6251 70.1251 45.6251C61.799 45.6251 55.0494 52.3097 55.0494 60.5556Z" fill="white"/>
</g>
<defs>
<filter id="filter0_dd_42_452" x="0" y="0" width="140" height="140" filterUnits="userSpaceOnUse" color-interpolation-filters="sRGB">
<feFlood flood-opacity="0" result="BackgroundImageFix"/>
<feColorMatrix in="SourceAlpha" type="matrix" values="0 0 0 0 0 0 0 0 0 0 0 0 0 0 0 0 0 0 127 0" result="hardAlpha"/>
<feOffset dy="4"/>
<feGaussianBlur stdDeviation="3.5"/>
<feComposite in2="hardAlpha" operator="out"/>
<feColorMatrix type="matrix" values="0 0 0 0 0 0 0 0 0 0 0 0 0 0 0 0 0 0 0.25 0"/>
<feBlend mode="normal" in2="BackgroundImageFix" result="effect1_dropShadow_42_452"/>
<feColorMatrix in="SourceAlpha" type="matrix" values="0 0 0 0 0 0 0 0 0 0 0 0 0 0 0 0 0 0 127 0" result="hardAlpha"/>
<feOffset/>
<feGaussianBlur stdDeviation="10"/>
<feComposite in2="hardAlpha" operator="out"/>
<feColorMatrix type="matrix" values="0 0 0 0 0 0 0 0 0 0 0 0 0 0 0 0 0 0 0.25 0"/>
<feBlend mode="normal" in2="effect1_dropShadow_42_452" result="effect2_dropShadow_42_452"/>
<feBlend mode="normal" in="SourceGraphic" in2="effect2_dropShadow_42_452" result="shape"/>
</filter>
<linearGradient id="paint0_linear_42_452" x1="120" y1="20" x2="20" y2="120" gradientUnits="userSpaceOnUse">
<stop stop-color="#17BFF0"/>
<stop offset="1" stop-color="#00317D"/>
</linearGradient>
</defs>
</svg>
