<svg width="32" height="32" viewBox="0 0 32 32" fill="none" xmlns="http://www.w3.org/2000/svg">
<path fill-rule="evenodd" clip-rule="evenodd" d="M0 16C0 24.6176 6.8136 31.6448 15.3472 31.9872C15.4912 31.9957 15.6357 32 15.7808 32H16C24.8368 32 32 24.8368 32 16C32 7.1632 24.8368 0 16 0C7.1632 0 0 7.1632 0 16ZM5.61367 25.0249C5.57245 25.3864 5.61317 25.7525 5.7328 26.096C3.1768 23.4976 1.6 19.9328 1.6 16C1.6 8.0472 8.0472 1.6 16 1.6C23.9528 1.6 30.4 8.0472 30.4 16C30.4049 19.784 28.9153 23.4168 26.2552 26.108C26.3803 25.7662 26.4258 25.4004 26.3882 25.0384C26.3506 24.6764 26.2309 24.3277 26.0382 24.019C25.8455 23.7102 25.5848 23.4495 25.2761 23.2567C24.9674 23.0639 24.6188 22.9441 24.2568 22.9064C18.0504 22.264 13.988 22.2016 7.7512 22.892C7.38968 22.9324 7.04191 23.0538 6.7337 23.247C6.42549 23.4402 6.16476 23.7004 5.97086 24.0082C5.77696 24.316 5.65488 24.6635 5.61367 25.0249ZM20.5256 17.3258C21.7258 16.1255 22.4001 14.4977 22.4001 12.8003C22.4001 11.1029 21.7258 9.47502 20.5256 8.27479C19.3253 7.07455 17.6975 6.40027 16.0001 6.40027C14.3027 6.40027 12.6748 7.07455 11.4746 8.27479C10.2744 9.47502 9.6001 11.1029 9.6001 12.8003C9.6001 14.4977 10.2744 16.1255 11.4746 17.3258C12.6748 18.526 14.3027 19.2003 16.0001 19.2003C17.6975 19.2003 19.3253 18.526 20.5256 17.3258Z" fill="url(#paint0_linear_401_213)"/>
<defs>
<linearGradient id="paint0_linear_401_213" x1="32" y1="0" x2="0" y2="32" gradientUnits="userSpaceOnUse">
<stop stop-color="#17BFF0"/>
<stop offset="1" stop-color="#00317D"/>
</linearGradient>
</defs>
</svg>
