<svg viewBox="0 0 52 52" fill="none" xmlns="http://www.w3.org/2000/svg">
<path d="M36.4001 20.7999C36.4001 23.5582 35.3044 26.2034 33.354 28.1538C31.4036 30.1042 28.7583 31.1999 26.0001 31.1999C23.2418 31.1999 20.5966 30.1042 18.6462 28.1538C16.6958 26.2034 15.6001 23.5582 15.6001 20.7999C15.6001 18.0417 16.6958 15.3964 18.6462 13.446C20.5966 11.4956 23.2418 10.3999 26.0001 10.3999C28.7583 10.3999 31.4036 11.4956 33.354 13.446C35.3044 15.3964 36.4001 18.0417 36.4001 20.7999Z" />
<path fill-rule="evenodd" clip-rule="evenodd" d="M24.9392 51.9792C11.0721 51.4228 0 40.0036 0 26C0 11.6402 11.6402 0 26 0C40.3598 0 52 11.6402 52 26C52 40.3598 40.3598 52 26 52H25.6438C25.4081 52 25.1732 51.9931 24.9392 51.9792ZM9.3158 42.406C9.1214 41.8477 9.05523 41.2529 9.12221 40.6655C9.18918 40.0782 9.38757 39.5135 9.70265 39.0133C10.0177 38.5132 10.4414 38.0904 10.9423 37.7764C11.4431 37.4624 12.0082 37.2652 12.5957 37.1995C22.7305 36.0776 29.3319 36.179 39.4173 37.2229C40.0056 37.2842 40.5721 37.4789 41.0737 37.7921C41.5754 38.1054 41.9989 38.5291 42.3121 39.0308C42.6252 39.5325 42.8198 40.0991 42.8809 40.6874C42.942 41.2757 42.8681 41.8701 42.6647 42.4255C46.9874 38.0523 49.408 32.149 49.4 26C49.4 13.0767 38.9233 2.6 26 2.6C13.0767 2.6 2.6 13.0767 2.6 26C2.6 32.3908 5.1623 38.1836 9.3158 42.406Z" />
</svg>
