<svg width="105" height="110" viewBox="0 0 105 110" fill="none" xmlns="http://www.w3.org/2000/svg">
<path d="M12.0798 43.172C11.7188 44.7503 11.4345 46.3588 11.2376 47.9918C12.2657 45.0376 13.5782 42.2146 15.1395 39.553C18.1063 34.4952 22.443 29.9161 27.187 26.2069C17.0399 37.1568 15.8668 47.6198 15.8668 52.9648C15.8668 62.9492 18.3332 65.1676 22.6207 65.1867H22.6726C26.1617 65.1867 27.9281 64.3306 31.1929 64.3306C34.1815 64.3306 37.1948 65.3317 39.8689 68.4446C40.1779 68.803 39.9236 69.3637 39.4506 69.3637H33.7057C31.7616 69.3637 30.0636 70.5564 30.0636 73.0456C30.0636 75.5349 34.0803 82.6169 42.3353 83.0327L46.6255 83.1503C48.0829 83.1503 49.4337 83.9162 50.1829 85.1663L53.0786 89.9998L53.9946 91.5289C54.0165 91.5344 54.0383 91.5399 54.063 91.5453L59.6601 100.89C60.691 102.61 60.1332 104.84 58.4133 105.871C56.6907 106.902 54.4622 106.344 53.4313 104.621L48.6872 96.0971C48.5286 95.8099 48.1814 95.6868 47.8779 95.8044C47.5224 95.9412 47.3583 96.3515 47.5224 96.6962L51.2001 104.484C51.8317 105.822 51.2575 107.419 49.9231 108.051C49.7208 108.147 49.5103 108.215 49.2997 108.256C49.0071 108.267 48.7146 108.278 48.4193 108.286C47.547 108.169 46.754 107.624 46.3521 106.773L41.2771 96.0014C41.1432 95.7196 40.8232 95.5801 40.5252 95.6758L40.5088 95.6813C40.1479 95.7962 39.9674 96.1928 40.115 96.5375C41.0584 98.7368 44.0662 105.841 44.0662 105.841C44.397 106.626 44.3287 107.482 43.9486 108.174C43.6724 108.686 43.224 109.11 42.647 109.356C41.2853 109.93 39.7104 109.296 39.1361 107.931L38.9666 107.528L34.9307 97.9955C34.8186 97.7329 34.5288 97.5988 34.2581 97.6864C33.96 97.7821 33.8014 98.1076 33.9108 98.4003L36.7791 106.092C36.9049 106.423 36.9569 106.768 36.9459 107.102C36.9186 108.16 36.2596 109.148 35.2069 109.542C33.8178 110.059 32.2757 109.353 31.7589 107.969L30.4108 104.347C30.4108 104.347 29.5413 102.079 29.2788 101.314C28.4722 98.9611 27.332 98.5754 26.8753 98.3237C26.7578 98.2581 26.7113 98.1049 26.7632 97.9791C27.1269 97.1119 27.2964 95.9248 26.766 94.4257C26.4296 93.4766 25.3085 92.5246 24.3679 92.1991C24.2285 92.1499 24.1437 92.0076 24.182 91.8654C24.3187 91.332 24.3297 90.2925 24.1 89.3707C23.6679 87.6364 22.3664 86.3234 20.6848 86.11C20.5043 86.0882 20.3977 85.8994 20.4688 85.7298C20.6684 85.2538 20.7777 84.7341 20.7777 84.1952C20.7777 83.8971 20.7449 83.5907 20.6738 83.2843C20.1899 81.2054 18.0981 79.917 15.9954 80.289L10.4419 81.2683H10.4255C9.41926 81.4461 8.41029 80.9784 7.87709 80.1085C6.58921 78.0132 5.56657 76.0108 4.54665 73.6146C0.371307 63.7753 -0.9029 52.4123 1.79864 40.5843C6.23648 21.1573 21.5543 5.9647 41.001 1.64272C64.7433 -3.63119 86.6017 7.12178 97.8508 25.1784C89.0598 13.3504 74.9807 5.69115 59.116 5.69115C36.1776 5.69115 16.9743 21.7126 12.0852 43.1802L12.0798 43.172Z" fill="url(#paint0_linear_1_11)"/>
<path d="M104.657 63.9449C102.228 75.4774 96.0324 85.6204 87.4193 93.0252C81.4857 98.1268 74.4038 101.932 66.6136 103.994L66.5917 104C65.3285 104.336 63.9941 103.814 63.2941 102.706C63.1601 102.495 63.0234 102.276 62.8812 102.055C61.6398 100.091 60.1578 97.7493 58.6785 95.4132C57.943 94.2479 57.2047 93.0881 56.502 91.9775C54.2461 88.4269 52.3075 85.3879 51.6704 84.425C49.8384 81.6595 48.8021 81.4434 43.6095 81.4434C34.4085 81.4434 31.6112 74.1836 31.6112 73.2234C31.6112 72.2633 31.9202 71.0953 33.9409 71.0953H53.9536C56.6496 71.0953 57.377 71.1472 58.5172 72.6517C59.6602 74.1535 65.9792 84.4223 71.5792 84.4223C76.6241 84.4223 87.8513 74.0085 89.913 59.5764C90.3888 62.0191 90.6376 64.5384 90.6376 67.1125C90.6376 74.2574 88.7235 80.9784 85.3576 86.8322C85.2755 86.9799 85.188 87.1221 85.1033 87.2671C85.6993 86.8431 86.2845 86.4082 86.856 85.9569C95.193 80.8471 101.567 73.0921 104.662 63.9394L104.657 63.9449Z" fill="url(#paint1_linear_1_11)"/>
<path d="M19.9677 87.2899L12.6325 88.5838C11.1141 88.8516 10.1002 90.3002 10.368 91.8192L10.3789 91.8812C10.6466 93.4002 12.0946 94.4145 13.613 94.1466L20.9482 92.8527C22.4667 92.5849 23.4805 91.1363 23.2128 89.6173L23.2019 89.5554C22.9341 88.0363 21.4862 87.022 19.9677 87.2899Z" fill="#0384D8"/>
<path d="M22.8696 93.2202L16.8027 94.2904C15.2843 94.5582 14.2704 96.0068 14.5382 97.5258L14.5491 97.5878C14.8168 99.1068 16.2648 100.121 17.7832 99.8532L23.8501 98.783C25.3685 98.5152 26.3824 97.0667 26.1147 95.5476L26.1038 95.4857C25.836 93.9666 24.3881 92.9524 22.8696 93.2202Z" fill="#0384D8"/>
<path d="M25.3143 99.2283L20.2761 100.117C18.7576 100.385 17.7438 101.833 18.0115 103.353L18.0224 103.414C18.2902 104.933 19.7381 105.948 21.2566 105.68L26.2948 104.791C27.8132 104.523 28.8271 103.075 28.5594 101.556L28.5485 101.494C28.2807 99.9748 26.8327 98.9605 25.3143 99.2283Z" fill="#0089D1"/>
<path d="M16.464 81.3776L10.4725 82.4345C8.9541 82.7024 7.94021 84.1509 8.20795 85.6699L8.21887 85.7319C8.48661 87.2509 9.93459 88.2652 11.453 87.9974L17.4445 86.9405C18.9629 86.6726 19.9768 85.2241 19.7091 83.7051L19.6982 83.6431C19.4304 82.1241 17.9824 81.1098 16.464 81.3776Z" fill="#0384D8"/>
<defs>
<linearGradient id="paint0_linear_1_11" x1="8.86692" y1="79.9088" x2="93.4868" y2="20.8441" gradientUnits="userSpaceOnUse">
<stop stop-color="#00317D"/>
<stop offset="0.94" stop-color="#17BFF0"/>
</linearGradient>
<linearGradient id="paint1_linear_1_11" x1="50.7927" y1="89.8275" x2="87.7949" y2="59.0519" gradientUnits="userSpaceOnUse">
<stop stop-color="#0384D8"/>
<stop offset="0.72" stop-color="#17BFF0"/>
</linearGradient>
</defs>
</svg>
