<svg width="150" height="68" viewBox="0 0 150 68" fill="none" xmlns="http://www.w3.org/2000/svg">
<path d="M0.880222 5.59257C0.880222 4.71996 1.05522 3.96225 1.40521 3.32216C2.16263 1.6344 4.08214 0.52655 5.94423 0.52655H20.2613C28.3522 0.52655 34.7533 3.3796 34.7533 12.1138C34.7533 15.5495 33.0061 18.285 30.0393 19.9153C33.6486 21.3705 35.6256 24.9813 35.6256 28.7644C35.6256 37.8487 28.5819 41.1094 20.7261 41.1094H2.33489C1.63763 41.1094 0.880222 40.3517 0.880222 39.6541V5.59257ZM19.039 16.5972C21.6585 16.5972 23.4632 15.0845 23.4632 12.4038C23.4632 11.0662 23.0558 10.0158 22.2409 9.31822C21.3687 8.67813 20.3214 8.328 19.039 8.328H8.56374C10.2508 8.328 11.7656 9.66562 11.7656 11.4136V14.9067C11.7656 15.8395 12.6379 16.5945 13.5129 16.5945H19.0418L19.039 16.5972ZM19.564 33.2505C22.4159 33.2505 24.278 31.6776 24.278 28.7671C24.278 25.8566 22.2984 24.1661 19.564 24.1661H8.56374C10.2508 24.1661 11.7656 25.5065 11.7656 27.2517V31.5026C11.7656 32.4928 12.5805 33.2478 13.5129 33.2478H19.5668L19.564 33.2505Z" fill="#00317D"/>
<path d="M42.0868 5.65001C42.0868 2.79696 44.2989 0.584 47.1509 0.584H70.8987C71.8311 0.584 72.4108 1.16665 72.4108 2.09669V7.86024C72.4108 8.26782 72.2932 8.61796 72.0033 8.85047C71.7135 9.14042 71.3635 9.25804 70.8987 9.25804H49.4231C51.1703 9.25804 52.625 10.6558 52.625 12.4011V14.8465C52.625 15.8368 53.3824 16.6519 54.3723 16.6519H67.0596C67.9893 16.6519 68.5717 17.2346 68.5717 18.1646V23.4057C68.5717 24.2783 67.9319 24.9184 67.0596 24.9184H49.4231C51.0528 24.9184 52.625 26.2587 52.625 27.9465V30.6847C52.625 31.6749 53.3824 32.49 54.3723 32.49H71.3662C72.3561 32.49 72.8783 33.0153 72.8783 34.0027V39.7088C72.8783 40.1739 72.7607 40.524 72.4709 40.7565C72.1811 41.0465 71.7737 41.1641 71.3662 41.1641H43.547C42.8497 41.1641 42.0923 40.4064 42.0923 39.7088V5.64728L42.0868 5.65001Z" fill="#00317D"/>
<path d="M94.7613 41.7495C87.2528 41.7495 77.5349 38.8964 77.0673 30.0473C77.0673 29.6972 77.1849 29.4072 77.4748 29.1747C77.7072 28.9422 77.9997 28.8246 78.347 28.8246H86.088C86.3204 28.8246 86.5528 28.8246 86.7278 28.882C86.9028 28.9395 87.0176 28.9996 87.1926 29.0571C87.4825 29.2321 87.775 29.4647 88.1825 29.8722C89.4621 32.3177 92.1391 33.0754 94.7586 33.0754C96.0957 33.0754 97.6679 33.018 98.8902 32.4353C99.53 32.2028 100.055 31.8527 100.52 31.3302C100.985 30.8652 101.217 30.2251 101.217 29.4674C101.217 27.3119 99.355 26.6718 97.6078 26.0891C96.9679 25.8566 96.1531 25.6241 95.2781 25.3916C87.7696 23.9938 78.1091 22.0735 78.1091 12.4065C78.1091 3.43979 86.7223 0.0615311 94.3484 0.0615311C97.0828 0.0615311 99.7597 0.469108 102.379 1.40189C106.453 3.08965 110.76 6.70042 111.053 11.4163C111.053 11.7063 110.935 11.9989 110.703 12.2889C110.413 12.5789 110.12 12.6965 109.83 12.6965H101.682C100.867 12.6965 100.227 12.3463 99.7624 11.6488C99.53 10.8337 98.9476 10.1361 97.9578 9.55347C96.9105 9.02827 95.6882 8.73831 94.3484 8.73831C92.6613 8.73831 90.7391 8.97082 89.6918 10.4261C89.402 10.8911 89.227 11.4737 89.227 12.174C89.227 13.2791 89.8094 14.1545 90.9742 14.7946C92.1391 15.4346 94.291 16.0747 97.4929 16.7148C104.944 18.1701 112.45 20.0329 112.45 28.9422C112.45 38.4314 102.672 41.7522 94.7558 41.7522L94.7613 41.7495Z" fill="#00317D"/>
<path d="M148.076 0.52655C148.948 0.52655 149.588 1.1092 149.588 1.9818V8.50306C149.588 9.37567 148.948 9.95831 148.076 9.95831H134.573C136.203 9.95831 137.89 11.2987 137.89 12.9864V39.6541C137.89 40.0617 137.715 40.4118 137.425 40.6444C137.135 40.9343 136.785 41.0519 136.378 41.0519H128.287C127.88 41.0519 127.53 40.9343 127.24 40.6444C126.95 40.4118 126.775 40.0617 126.775 39.6541V11.7062C126.775 10.716 126.018 9.95831 125.028 9.95831H116.59C115.775 9.95831 115.075 9.31822 115.075 8.50306V5.53239C115.075 2.79696 117.404 0.52655 120.139 0.52655H148.076Z" fill="#00317D"/>
<path d="M0.943131 61.3297C0.918522 60.8674 0.918514 60.189 0.918514 59.2398C0.918514 58.2906 0.918522 57.5876 0.943131 57.1253C1.08805 52.6064 4.197 50.4454 8.4954 50.4454C12.7938 50.4454 15.8781 52.6091 16.023 57.1253C16.0477 58.0718 16.0723 58.7775 16.0723 59.2398C16.0723 61.792 16.0723 64.4399 13.934 66.2617C12.5969 67.3804 10.8005 67.9385 8.4954 67.9385C4.17239 67.9385 1.08805 65.8978 0.943131 61.3297ZM11.3118 61.1847C11.3364 60.2382 11.361 59.5817 11.361 59.1687C11.361 58.7556 11.3364 58.0991 11.3118 57.2019C11.2626 55.3801 10.4368 54.0917 8.4954 54.0917C6.55401 54.0917 5.70362 55.3555 5.65441 57.2019C5.6298 57.6642 5.62981 58.318 5.62981 59.1687C5.62981 60.0194 5.6298 60.7224 5.65441 61.1847C5.70362 63.0065 6.57588 64.2949 8.4954 64.2949C10.4149 64.2949 11.2626 62.9819 11.3118 61.1847Z" fill="#0384D8"/>
<path d="M18.8668 52.8033C18.8668 52.2453 19.1347 51.6627 19.523 51.2715C19.7172 51.1019 19.9359 50.9569 20.2039 50.8338C20.4718 50.7354 20.7124 50.6889 20.9804 50.6889H30.7174C31.0319 50.6889 31.3491 51.0034 31.3491 51.3207V53.8948C31.3491 54.0644 31.2752 54.2094 31.1549 54.3078C31.0346 54.4282 30.887 54.4774 30.7174 54.4774H21.9757C22.7031 54.4774 23.3101 55.0601 23.3101 55.7904V57.8557H29.137C29.5499 57.8557 29.7686 58.0745 29.7686 58.4876V61.0397C29.7686 61.2339 29.7194 61.3789 29.5991 61.4774C29.4788 61.5977 29.3311 61.647 29.137 61.647H21.973C22.6757 61.647 23.3073 62.2296 23.3073 62.9354V67.0166C23.3073 67.1862 23.2581 67.3312 23.1378 67.4543C23.0394 67.5747 22.8945 67.6239 22.7003 67.6239H19.4711C19.1074 67.6239 18.864 67.3804 18.864 67.0166V52.8033H18.8668Z" fill="#0384D8"/>
<path d="M33.9494 52.8033C33.9494 52.2453 34.2174 51.6627 34.6057 51.2715C34.7998 51.1019 35.0185 50.9569 35.2865 50.8338C35.5545 50.7354 35.7951 50.6889 36.0631 50.6889H45.8001C46.1145 50.6889 46.4317 51.0034 46.4317 51.3207V53.8948C46.4317 54.0644 46.3579 54.2094 46.2376 54.3078C46.1173 54.4282 45.9696 54.4774 45.8001 54.4774H37.0584C37.7857 54.4774 38.3927 55.0601 38.3927 55.7904V57.8557H44.2196C44.6325 57.8557 44.8513 58.0745 44.8513 58.4876V61.0397C44.8513 61.2339 44.802 61.3789 44.6817 61.4774C44.5614 61.5977 44.4138 61.647 44.2196 61.647H37.0556C37.7584 61.647 38.39 62.2296 38.39 62.9354V67.0166C38.39 67.1862 38.3408 67.3312 38.2205 67.4543C38.122 67.5747 37.9771 67.6239 37.783 67.6239H34.5537C34.19 67.6239 33.9467 67.3804 33.9467 67.0166V52.8033H33.9494Z" fill="#0384D8"/>
<path d="M49.0075 52.828C49.0075 51.6381 49.9317 50.7135 51.1211 50.7135H61.0304C61.4187 50.7135 61.662 50.9569 61.662 51.3454V53.7498C61.662 53.9194 61.6128 54.0644 61.4925 54.1629C61.3722 54.2832 61.2245 54.3325 61.0304 54.3325H52.0699C52.7973 54.3325 53.4043 54.9151 53.4043 55.6455V56.6658C53.4043 57.0788 53.7187 57.418 54.1316 57.418H59.4253C59.8136 57.418 60.057 57.6615 60.057 58.0499V60.2355C60.057 60.5993 59.789 60.8674 59.4253 60.8674H52.0672C52.7481 60.8674 53.4016 61.4254 53.4016 62.1312V63.2718C53.4016 63.6849 53.716 64.0241 54.1289 64.0241H61.2191C61.632 64.0241 61.8507 64.2429 61.8507 64.656V67.0358C61.8507 67.23 61.8015 67.375 61.6812 67.4734C61.5609 67.5938 61.3886 67.6431 61.2191 67.6431H49.6118C49.3192 67.6431 49.0047 67.3285 49.0047 67.0358V52.8225L49.0075 52.828Z" fill="#0384D8"/>
<path d="M75.115 67.6485C74.6529 67.6485 74.3385 67.4297 74.1443 67.0166L71.667 62.1585C71.5221 61.8904 71.3033 61.7701 71.0108 61.7701H67.8307C68.2436 61.7701 68.5581 61.9151 68.8014 62.1831C69.0202 62.4758 69.1405 62.7658 69.1405 63.0585V67.0659C69.1405 67.2355 69.0912 67.3804 68.9709 67.4789C68.8506 67.5993 68.703 67.6485 68.5334 67.6485H65.2057C64.9378 67.6485 64.5987 67.3558 64.5987 67.0659V52.8307C64.5987 51.6408 65.5229 50.7408 66.7124 50.7408H71.8611C75.6017 50.7408 78.6615 52.2699 78.6615 56.2801C78.6615 58.2496 77.7619 59.8279 76.0638 60.799C75.9435 60.8729 75.8697 60.9686 75.8697 61.0917C75.8451 61.2121 75.8697 61.2859 75.9189 61.3598L78.9787 66.899C79.0279 66.9975 79.0525 67.0932 79.0525 67.1671C79.0525 67.2874 79.0033 67.4105 78.9076 67.5063C78.7872 67.6048 78.6642 67.6513 78.5439 67.6513H75.1205L75.115 67.6485ZM73.3897 54.7236C72.9768 54.3844 72.4682 54.2148 71.8365 54.2148H67.6585C68.3612 54.2148 68.9928 54.7729 68.9928 55.5032V57.47C68.9928 57.6642 69.0666 57.8338 69.2116 57.9788C69.3319 58.1238 69.5041 58.1976 69.7201 58.1976H71.8338C73.0971 58.1976 73.9721 57.5657 73.9721 56.2527C73.9721 55.5962 73.7779 55.0874 73.3897 54.7209V54.7236Z" fill="#0384D8"/>
<path d="M86.5555 52.8772C86.5555 51.7119 87.5016 50.7627 88.6692 50.7627H93.5254C97.9687 50.7627 101.053 52.828 101.151 57.3715C101.176 57.5903 101.176 57.8584 101.176 58.173V60.2629C101.176 60.5774 101.176 60.8455 101.151 61.0643C101.007 65.4848 98.5046 67.6978 93.6484 67.6978H87.1653C86.8016 67.6978 86.5583 67.4543 86.5583 67.0905V52.8772H86.5555ZM93.5254 64.076C95.6144 64.076 96.4894 63.0557 96.5359 61.0151C96.5605 60.7963 96.5605 60.5282 96.5851 60.2136V58.1976C96.5605 57.9049 96.5605 57.6396 96.5359 57.4207C96.4867 55.4047 95.4422 54.3844 93.4023 54.3844H89.7602C90.441 54.3844 91.0973 54.9425 91.0973 55.6482V63.3238C91.0973 63.5426 91.1711 63.7122 91.316 63.8572C91.4363 64.0022 91.6305 64.076 91.8492 64.076H93.5254Z" fill="#17BFF0"/>
<path d="M104.042 52.828C104.042 51.6381 104.966 50.7135 106.155 50.7135H116.065C116.453 50.7135 116.696 50.9569 116.696 51.3454V53.7498C116.696 53.9194 116.647 54.0644 116.527 54.1629C116.406 54.2832 116.259 54.3325 116.065 54.3325H107.104C107.831 54.3325 108.439 54.9151 108.439 55.6455V56.6658C108.439 57.0788 108.753 57.418 109.166 57.418H114.46C114.848 57.418 115.091 57.6615 115.091 58.0499V60.2355C115.091 60.5993 114.823 60.8674 114.46 60.8674H107.101C107.782 60.8674 108.436 61.4254 108.436 62.1312V63.2718C108.436 63.6849 108.75 64.0241 109.163 64.0241H116.253C116.666 64.0241 116.885 64.2429 116.885 64.656V67.0358C116.885 67.23 116.836 67.375 116.715 67.4734C116.595 67.5938 116.423 67.6431 116.253 67.6431H104.646C104.353 67.6431 104.039 67.3285 104.039 67.0358V52.8225L104.042 52.828Z" fill="#17BFF0"/>
<path d="M118.151 67.1862C118.151 67.0659 118.151 66.992 118.176 66.9674L123.808 51.4685C123.978 51.0062 124.317 50.7627 124.779 50.7627H128.544C129.006 50.7627 129.345 51.0062 129.515 51.4685L135.148 66.9674C135.172 66.992 135.172 67.0659 135.172 67.1862C135.172 67.4543 134.929 67.695 134.664 67.695H131.53C131.117 67.695 130.849 67.5254 130.704 67.1616L129.441 63.7369C127.426 64.4891 125.241 64.8064 123.103 64.8064H122.277C122.545 64.8556 122.739 65.0252 122.909 65.2687C123.078 65.5368 123.103 65.876 122.958 66.2398L122.619 67.1616C122.474 67.5254 122.206 67.695 121.793 67.695H118.659C118.539 67.695 118.416 67.6458 118.296 67.55C118.197 67.4297 118.151 67.3066 118.151 67.1862ZM126.649 55.0136L124.465 61.3297C125.703 61.2558 127.404 60.9659 128.52 60.3586L126.649 55.0136Z" fill="#17BFF0"/>
<path d="M137.144 52.7787C137.144 51.6599 138.139 50.6889 139.257 50.6889H141.152C141.322 50.6889 141.467 50.7381 141.565 50.8585C141.685 50.9788 141.735 51.1265 141.735 51.2961V63.0776C141.735 63.198 141.808 63.3703 141.929 63.5399C142.049 63.7341 142.243 63.8326 142.487 63.8326H148.994C149.164 63.8326 149.333 63.8818 149.456 63.9776C149.577 64.0979 149.626 64.2456 149.626 64.4399V67.0139C149.626 67.2081 149.577 67.3531 149.456 67.4516C149.336 67.5719 149.164 67.6212 148.994 67.6212H137.751C137.458 67.6212 137.144 67.3066 137.144 67.0139V52.7787Z" fill="#17BFF0"/>
</svg>
