<svg  viewBox="0 0 989 401" fill="none" xmlns="http://www.w3.org/2000/svg">
<path d="M43.4201 156.94C42.1001 162.71 41.0601 168.59 40.3401 174.56C44.1001 163.76 48.9001 153.44 54.6101 143.71C65.4601 125.22 81.3201 108.48 98.6701 94.9201C61.5601 134.95 57.2701 173.2 57.2701 192.74C57.2701 229.24 66.2901 237.35 81.9701 237.42H82.1601C94.9201 237.42 101.38 234.29 113.32 234.29C124.25 234.29 135.27 237.95 145.05 249.33C146.18 250.64 145.25 252.69 143.52 252.69H122.51C115.4 252.69 109.19 257.05 109.19 266.15C109.19 275.25 123.88 301.14 154.07 302.66L169.76 303.09C175.09 303.09 180.03 305.89 182.77 310.46L193.36 328.13L196.71 333.72C196.79 333.74 196.87 333.76 196.96 333.78L217.43 367.94C221.2 374.23 219.16 382.38 212.87 386.15C206.57 389.92 198.42 387.88 194.65 381.58L177.3 350.42C176.72 349.37 175.45 348.92 174.34 349.35C173.04 349.85 172.44 351.35 173.04 352.61L186.49 381.08C188.8 385.97 186.7 391.81 181.82 394.12C181.08 394.47 180.31 394.72 179.54 394.87C178.47 394.91 177.4 394.95 176.32 394.98C173.13 394.55 170.23 392.56 168.76 389.45L150.2 350.07C149.71 349.04 148.54 348.53 147.45 348.88L147.39 348.9C146.07 349.32 145.41 350.77 145.95 352.03C149.4 360.07 160.4 386.04 160.4 386.04C161.61 388.91 161.36 392.04 159.97 394.57C158.96 396.44 157.32 397.99 155.21 398.89C150.23 400.99 144.47 398.67 142.37 393.68L141.75 392.21L126.99 357.36C126.58 356.4 125.52 355.91 124.53 356.23C123.44 356.58 122.86 357.77 123.26 358.84L133.75 386.96C134.21 388.17 134.4 389.43 134.36 390.65C134.26 394.52 131.85 398.13 128 399.57C122.92 401.46 117.28 398.88 115.39 393.82L110.46 380.58C110.46 380.58 107.28 372.29 106.32 369.49C103.37 360.89 99.2001 359.48 97.5301 358.56C97.1001 358.32 96.9301 357.76 97.1201 357.3C98.4501 354.13 99.0701 349.79 97.1301 344.31C95.9001 340.84 91.8001 337.36 88.3601 336.17C87.8501 335.99 87.5401 335.47 87.6801 334.95C88.1801 333 88.2201 329.2 87.3801 325.83C85.8001 319.49 81.0401 314.69 74.8901 313.91C74.2301 313.83 73.8401 313.14 74.1001 312.52C74.8301 310.78 75.2301 308.88 75.2301 306.91C75.2301 305.82 75.1101 304.7 74.8501 303.58C73.0801 295.98 65.4301 291.27 57.7401 292.63L37.4301 296.21H37.3701C33.6901 296.86 30.0001 295.15 28.0501 291.97C23.3401 284.31 19.6001 276.99 15.8701 268.23C0.600109 232.26 -4.05989 190.72 5.82011 147.48C22.0501 76.4601 78.0701 20.9201 149.19 5.12007C236.02 -14.1599 315.96 25.1501 357.1 91.1601C324.95 47.9201 273.46 19.9201 215.44 19.9201C131.55 19.9201 61.3201 78.4901 43.4401 156.97L43.4201 156.94Z" fill="url(#paint0_linear_403_1273)"/>
<path d="M381.99 232.88C373.11 275.04 350.45 312.12 318.95 339.19C297.25 357.84 271.35 371.75 242.86 379.29L242.78 379.31C238.16 380.54 233.28 378.63 230.72 374.58C230.23 373.81 229.73 373.01 229.21 372.2C224.67 365.02 219.25 356.46 213.84 347.92C211.15 343.66 208.45 339.42 205.88 335.36C197.63 322.38 190.54 311.27 188.21 307.75C181.51 297.64 177.72 296.85 158.73 296.85C125.08 296.85 114.85 270.31 114.85 266.8C114.85 263.29 115.98 259.02 123.37 259.02H196.56C206.42 259.02 209.08 259.21 213.25 264.71C217.43 270.2 240.54 307.74 261.02 307.74C279.47 307.74 320.53 269.67 328.07 216.91C329.81 225.84 330.72 235.05 330.72 244.46C330.72 270.58 323.72 295.15 311.41 316.55C311.11 317.09 310.79 317.61 310.48 318.14C312.66 316.59 314.8 315 316.89 313.35C347.38 294.67 370.69 266.32 382.01 232.86L381.99 232.88Z" fill="url(#paint1_linear_403_1273)"/>
<path d="M72.2668 318.221L45.4406 322.951C39.8875 323.93 36.1795 329.226 37.1587 334.779L37.1986 335.006C38.1778 340.559 43.4733 344.267 49.0265 343.288L75.8526 338.557C81.4058 337.578 85.1137 332.283 84.1346 326.73L84.0946 326.503C83.1155 320.95 77.82 317.242 72.2668 318.221Z" fill="#0384D8"/>
<path d="M82.8896 339.901L60.7019 343.813C55.1487 344.792 51.4407 350.088 52.4199 355.641L52.4599 355.867C53.439 361.421 58.7345 365.129 64.2877 364.149L86.4754 360.237C92.0286 359.258 95.7365 353.962 94.7573 348.409L94.7174 348.183C93.7382 342.63 88.4427 338.922 82.8896 339.901Z" fill="#0384D8"/>
<path d="M91.8202 361.865L73.3945 365.114C67.8413 366.093 64.1334 371.389 65.1126 376.942L65.1525 377.168C66.1317 382.721 71.4272 386.429 76.9803 385.45L95.4061 382.201C100.959 381.222 104.667 375.927 103.688 370.373L103.648 370.147C102.669 364.594 97.3734 360.886 91.8202 361.865Z" fill="#0089D1"/>
<path d="M59.4529 296.608L37.541 300.471C31.9878 301.45 28.2799 306.746 29.259 312.299L29.299 312.526C30.2781 318.079 35.5736 321.787 41.1268 320.807L63.0388 316.944C68.5919 315.965 72.2999 310.669 71.3207 305.116L71.2808 304.889C70.3016 299.336 65.0061 295.628 59.4529 296.608Z" fill="#0384D8"/>
<path d="M444.98 96.3301C444.98 93.1401 445.62 90.3701 446.9 88.0301C449.67 81.8601 456.69 77.8101 463.5 77.8101H515.86C545.45 77.8101 568.86 88.2401 568.86 120.17C568.86 132.73 562.47 142.73 551.62 148.69C564.82 154.01 572.05 167.21 572.05 181.04C572.05 214.25 546.29 226.17 517.56 226.17H450.3C447.75 226.17 444.98 223.4 444.98 220.85V96.3301ZM511.39 136.56C520.97 136.56 527.57 131.03 527.57 121.23C527.57 116.34 526.08 112.5 523.1 109.95C519.91 107.61 516.08 106.33 511.39 106.33H473.08C479.25 106.33 484.79 111.22 484.79 117.61V130.38C484.79 133.79 487.98 136.55 491.18 136.55H511.4L511.39 136.56ZM513.31 197.44C523.74 197.44 530.55 191.69 530.55 181.05C530.55 170.41 523.31 164.23 513.31 164.23H473.08C479.25 164.23 484.79 169.13 484.79 175.51V191.05C484.79 194.67 487.77 197.43 491.18 197.43H513.32L513.31 197.44Z" fill="#00317D"/>
<path d="M595.68 96.5401C595.68 86.1101 603.77 78.0201 614.2 78.0201H701.05C704.46 78.0201 706.58 80.1501 706.58 83.5501V104.62C706.58 106.11 706.15 107.39 705.09 108.24C704.03 109.3 702.75 109.73 701.05 109.73H622.51C628.9 109.73 634.22 114.84 634.22 121.22V130.16C634.22 133.78 636.99 136.76 640.61 136.76H687.01C690.41 136.76 692.54 138.89 692.54 142.29V161.45C692.54 164.64 690.2 166.98 687.01 166.98H622.51C628.47 166.98 634.22 171.88 634.22 178.05V188.06C634.22 191.68 636.99 194.66 640.61 194.66H702.76C706.38 194.66 708.29 196.58 708.29 200.19V221.05C708.29 222.75 707.86 224.03 706.8 224.88C705.74 225.94 704.25 226.37 702.76 226.37H601.02C598.47 226.37 595.7 223.6 595.7 221.05V96.5301L595.68 96.5401Z" fill="#00317D"/>
<path d="M788.32 228.51C760.86 228.51 725.32 218.08 723.61 185.73C723.61 184.45 724.04 183.39 725.1 182.54C725.95 181.69 727.02 181.26 728.29 181.26H756.6C757.45 181.26 758.3 181.26 758.94 181.47C759.58 181.68 760 181.9 760.64 182.11C761.7 182.75 762.77 183.6 764.26 185.09C768.94 194.03 778.73 196.8 788.31 196.8C793.2 196.8 798.95 196.59 803.42 194.46C805.76 193.61 807.68 192.33 809.38 190.42C811.08 188.72 811.93 186.38 811.93 183.61C811.93 175.73 805.12 173.39 798.73 171.26C796.39 170.41 793.41 169.56 790.21 168.71C762.75 163.6 727.42 156.58 727.42 121.24C727.42 88.4601 758.92 76.1101 786.81 76.1101C796.81 76.1101 806.6 77.6001 816.18 81.0101C831.08 87.1801 846.83 100.38 847.9 117.62C847.9 118.68 847.47 119.75 846.62 120.81C845.56 121.87 844.49 122.3 843.43 122.3H813.63C810.65 122.3 808.31 121.02 806.61 118.47C805.76 115.49 803.63 112.94 800.01 110.81C796.18 108.89 791.71 107.83 786.81 107.83C780.64 107.83 773.61 108.68 769.78 114C768.72 115.7 768.08 117.83 768.08 120.39C768.08 124.43 770.21 127.63 774.47 129.97C778.73 132.31 786.6 134.65 798.31 136.99C825.56 142.31 853.01 149.12 853.01 181.69C853.01 216.38 817.25 228.52 788.3 228.52L788.32 228.51Z" fill="#00317D"/>
<path d="M983.3 77.8101C986.49 77.8101 988.83 79.9401 988.83 83.1301V106.97C988.83 110.16 986.49 112.29 983.3 112.29H933.92C939.88 112.29 946.05 117.19 946.05 123.36V220.85C946.05 222.34 945.41 223.62 944.35 224.47C943.29 225.53 942.01 225.96 940.52 225.96H910.93C909.44 225.96 908.16 225.53 907.1 224.47C906.04 223.62 905.4 222.34 905.4 220.85V118.68C905.4 115.06 902.63 112.29 899.01 112.29H868.15C865.17 112.29 862.61 109.95 862.61 106.97V96.1101C862.61 86.1101 871.13 77.8101 881.13 77.8101H983.3Z" fill="#00317D"/>
<path d="M445.21 299.33C445.13 297.81 445.13 295.56 445.13 292.44C445.13 289.32 445.13 286.99 445.21 285.47C445.69 270.57 455.95 263.44 470.13 263.44C484.31 263.44 494.49 270.57 494.97 285.47C495.05 288.59 495.13 290.92 495.13 292.44C495.13 300.85 495.13 309.59 488.08 315.59C483.67 319.28 477.74 321.12 470.13 321.12C455.87 321.12 445.69 314.39 445.21 299.33ZM479.42 298.85C479.5 295.73 479.58 293.56 479.58 292.2C479.58 290.84 479.5 288.67 479.42 285.71C479.26 279.7 476.54 275.45 470.13 275.45C463.72 275.45 460.92 279.62 460.76 285.71C460.68 287.23 460.68 289.39 460.68 292.2C460.68 295.01 460.68 297.33 460.76 298.85C460.92 304.86 463.8 309.11 470.13 309.11C476.46 309.11 479.26 304.78 479.42 298.85Z" fill="#0384D8"/>
<path d="M504.34 271.21C504.34 269.37 505.22 267.44 506.5 266.16C507.14 265.6 507.86 265.12 508.74 264.72C509.62 264.4 510.42 264.24 511.3 264.24H543.43C544.47 264.24 545.51 265.28 545.51 266.32V274.81C545.51 275.37 545.27 275.85 544.87 276.17C544.47 276.57 543.99 276.73 543.43 276.73H514.59C516.99 276.73 519 278.65 519 281.06V287.87H538.23C539.59 287.87 540.31 288.59 540.31 289.95V298.36C540.31 299 540.15 299.48 539.75 299.8C539.35 300.2 538.87 300.36 538.23 300.36H514.59C516.91 300.36 519 302.28 519 304.61V318.07C519 318.63 518.84 319.11 518.44 319.51C518.12 319.91 517.64 320.07 517 320.07H506.34C505.14 320.07 504.34 319.27 504.34 318.07V271.2V271.21Z" fill="#0384D8"/>
<path d="M554.1 271.21C554.1 269.37 554.98 267.44 556.26 266.16C556.9 265.6 557.62 265.12 558.5 264.72C559.38 264.4 560.18 264.24 561.06 264.24H593.19C594.23 264.24 595.27 265.28 595.27 266.32V274.81C595.27 275.37 595.03 275.85 594.63 276.17C594.23 276.57 593.75 276.73 593.19 276.73H564.35C566.75 276.73 568.76 278.65 568.76 281.06V287.87H587.99C589.35 287.87 590.07 288.59 590.07 289.95V298.36C590.07 299 589.91 299.48 589.51 299.8C589.11 300.2 588.63 300.36 587.99 300.36H564.35C566.67 300.36 568.76 302.28 568.76 304.61V318.07C568.76 318.63 568.6 319.11 568.2 319.51C567.88 319.91 567.4 320.07 566.76 320.07H556.1C554.9 320.07 554.1 319.27 554.1 318.07V271.2V271.21Z" fill="#0384D8"/>
<path d="M603.78 271.29C603.78 267.36 606.83 264.32 610.75 264.32H643.44C644.72 264.32 645.52 265.12 645.52 266.4V274.33C645.52 274.89 645.36 275.37 644.96 275.69C644.56 276.09 644.08 276.25 643.44 276.25H613.88C616.28 276.25 618.29 278.17 618.29 280.58V283.94C618.29 285.3 619.33 286.42 620.69 286.42H638.16C639.44 286.42 640.24 287.22 640.24 288.5V295.71C640.24 296.91 639.36 297.79 638.16 297.79H613.88C616.12 297.79 618.29 299.63 618.29 301.96V305.73C618.29 307.09 619.33 308.21 620.69 308.21H644.09C645.45 308.21 646.17 308.93 646.17 310.29V318.14C646.17 318.78 646.01 319.26 645.61 319.58C645.21 319.98 644.65 320.14 644.09 320.14H605.79C604.83 320.14 603.79 319.1 603.79 318.14V271.27L603.78 271.29Z" fill="#0384D8"/>
<path d="M689.92 320.16C688.4 320.16 687.36 319.44 686.72 318.08L678.55 302.06C678.07 301.18 677.35 300.78 676.39 300.78H665.89C667.25 300.78 668.29 301.26 669.09 302.14C669.81 303.1 670.21 304.06 670.21 305.02V318.24C670.21 318.8 670.05 319.28 669.65 319.6C669.25 320 668.77 320.16 668.21 320.16H657.23C656.35 320.16 655.23 319.2 655.23 318.24V271.29C655.23 267.36 658.28 264.4 662.2 264.4H679.19C691.53 264.4 701.62 269.45 701.62 282.67C701.62 289.16 698.66 294.37 693.05 297.57C692.65 297.81 692.41 298.13 692.41 298.53C692.33 298.93 692.41 299.17 692.57 299.41L702.66 317.68C702.82 318 702.9 318.32 702.9 318.56C702.9 318.96 702.74 319.36 702.42 319.68C702.02 320 701.62 320.16 701.22 320.16H689.92ZM684.23 277.54C682.87 276.42 681.19 275.86 679.1 275.86H665.32C667.64 275.86 669.73 277.7 669.73 280.11V286.6C669.73 287.24 669.97 287.8 670.45 288.28C670.85 288.76 671.41 289 672.13 289H679.1C683.27 289 686.15 286.92 686.15 282.59C686.15 280.43 685.51 278.74 684.23 277.54Z" fill="#0384D8"/>
<path d="M727.66 271.45C727.66 267.6 730.79 264.48 734.63 264.48H750.65C765.31 264.48 775.49 271.29 775.81 286.27C775.89 286.99 775.89 287.87 775.89 288.91V295.8C775.89 296.84 775.89 297.72 775.81 298.44C775.33 313.02 767.08 320.31 751.05 320.31H729.66C728.46 320.31 727.66 319.51 727.66 318.31V271.44V271.45ZM750.65 308.39C757.54 308.39 760.43 305.02 760.59 298.29C760.67 297.57 760.67 296.69 760.75 295.65V289C760.67 288.04 760.67 287.16 760.59 286.44C760.43 279.79 756.98 276.42 750.25 276.42H738.23C740.47 276.42 742.64 278.26 742.64 280.59V305.91C742.64 306.63 742.88 307.19 743.36 307.67C743.76 308.15 744.4 308.39 745.12 308.39H750.65Z" fill="#17BFF0"/>
<path d="M785.35 271.29C785.35 267.36 788.4 264.32 792.32 264.32H825.01C826.29 264.32 827.09 265.12 827.09 266.4V274.33C827.09 274.89 826.93 275.37 826.53 275.69C826.13 276.09 825.65 276.25 825.01 276.25H795.45C797.85 276.25 799.86 278.17 799.86 280.58V283.94C799.86 285.3 800.9 286.42 802.26 286.42H819.73C821.01 286.42 821.81 287.22 821.81 288.5V295.71C821.81 296.91 820.93 297.79 819.73 297.79H795.45C797.69 297.79 799.86 299.63 799.86 301.96V305.73C799.86 307.09 800.9 308.21 802.26 308.21H825.66C827.02 308.21 827.74 308.93 827.74 310.29V318.14C827.74 318.78 827.58 319.26 827.18 319.58C826.78 319.98 826.22 320.14 825.66 320.14H787.36C786.4 320.14 785.36 319.1 785.36 318.14V271.27L785.35 271.29Z" fill="#17BFF0"/>
<path d="M831.91 318.64C831.91 318.24 831.91 318 831.99 317.92L850.58 266.8C851.14 265.28 852.26 264.48 853.78 264.48H866.2C867.72 264.48 868.84 265.28 869.4 266.8L887.99 317.92C888.07 318 888.07 318.24 888.07 318.64C888.07 319.52 887.27 320.32 886.39 320.32H876.05C874.69 320.32 873.81 319.76 873.33 318.56L869.16 307.26C862.51 309.74 855.3 310.79 848.25 310.79H845.53C846.41 310.95 847.05 311.51 847.61 312.31C848.17 313.19 848.25 314.31 847.77 315.51L846.65 318.55C846.17 319.75 845.29 320.31 843.93 320.31H833.59C833.19 320.31 832.79 320.15 832.39 319.83C832.07 319.43 831.91 319.03 831.91 318.63V318.64ZM859.95 278.5L852.74 299.33C856.83 299.09 862.43 298.13 866.12 296.13L859.95 278.5Z" fill="#17BFF0"/>
<path d="M894.57 271.13C894.57 267.44 897.85 264.24 901.54 264.24H907.79C908.35 264.24 908.83 264.4 909.15 264.8C909.55 265.2 909.71 265.68 909.71 266.24V305.1C909.71 305.5 909.95 306.06 910.35 306.62C910.75 307.26 911.39 307.58 912.19 307.58H933.66C934.22 307.58 934.78 307.74 935.18 308.06C935.58 308.46 935.74 308.94 935.74 309.58V318.07C935.74 318.71 935.58 319.19 935.18 319.51C934.78 319.91 934.22 320.07 933.66 320.07H896.56C895.6 320.07 894.56 319.03 894.56 318.07V271.12L894.57 271.13Z" fill="#17BFF0"/>
<path d="M964.34 321.12C953.95 321.12 940.49 317.17 939.85 304.93C939.85 304.45 940.01 304.04 940.41 303.72C940.73 303.4 941.14 303.24 941.62 303.24H952.34C952.66 303.24 952.99 303.24 953.23 303.32C953.47 303.4 953.63 303.48 953.87 303.56C954.27 303.8 954.68 304.12 955.24 304.69C957.01 308.07 960.72 309.12 964.34 309.12C966.19 309.12 968.37 309.04 970.06 308.23C970.95 307.91 971.67 307.42 972.32 306.7C972.96 306.06 973.29 305.17 973.29 304.12C973.29 301.14 970.71 300.25 968.29 299.45C967.4 299.13 966.28 298.8 965.07 298.48C954.68 296.55 941.3 293.89 941.3 280.51C941.3 268.1 953.22 263.43 963.78 263.43C967.57 263.43 971.27 263.99 974.9 265.28C980.54 267.62 986.5 272.61 986.91 279.14C986.91 279.54 986.75 279.95 986.43 280.35C986.03 280.75 985.62 280.91 985.22 280.91H973.94C972.81 280.91 971.93 280.43 971.28 279.46C970.96 278.33 970.15 277.36 968.78 276.56C967.33 275.84 965.64 275.43 963.78 275.43C961.44 275.43 958.78 275.75 957.33 277.77C956.93 278.41 956.68 279.22 956.68 280.19C956.68 281.72 957.49 282.93 959.1 283.82C960.71 284.71 963.69 285.59 968.12 286.48C978.43 288.49 988.83 291.07 988.83 303.4C988.83 316.53 975.29 321.13 964.34 321.13V321.12Z" fill="#17BFF0"/>
<defs>
<linearGradient id="paint0_linear_403_1273" x1="31.6701" y1="291.24" x2="341.06" y2="75.2001" gradientUnits="userSpaceOnUse">
<stop stop-color="#00317D"/>
<stop offset="0.94" stop-color="#17BFF0"/>
</linearGradient>
<linearGradient id="paint1_linear_403_1273" x1="185" y1="327.5" x2="320.28" y2="214.94" gradientUnits="userSpaceOnUse">
<stop stop-color="#0384D8"/>
<stop offset="0.72" stop-color="#17BFF0"/>
</linearGradient>
</defs>
</svg>
