<svg  viewBox="0 0 203 100" fill="none" xmlns="http://www.w3.org/2000/svg">
<g clip-path="url(#clip0_403_1299)">
<path d="M19.4071 42.1147C19.1664 43.1669 18.9767 44.2392 18.8454 45.3279C19.5311 43.3584 20.4064 41.4764 21.4477 39.7021C23.4263 36.3302 26.3186 33.2774 29.4826 30.8046C22.7151 38.1046 21.9328 45.0799 21.9328 48.6433C21.9328 55.2995 23.5777 56.7784 26.4371 56.7912H26.4718C28.7987 56.7912 29.9768 56.2204 32.1542 56.2204C34.1474 56.2204 36.157 56.8878 37.9405 58.9631C38.1466 59.202 37.977 59.5759 37.6615 59.5759H33.8301C32.5335 59.5759 31.401 60.371 31.401 62.0304C31.401 63.6899 34.0799 68.4113 39.5854 68.6885L42.4467 68.7669C43.4187 68.7669 44.3195 69.2775 44.8192 70.1109L46.7504 73.3332L47.3613 74.3526C47.3759 74.3563 47.3905 74.3599 47.4069 74.3636L51.1399 80.5931C51.8274 81.7401 51.4554 83.2264 50.3083 83.9139C49.1594 84.6014 47.6732 84.2294 46.9857 83.0805L43.8217 77.3981C43.7159 77.2066 43.4843 77.1245 43.2819 77.203C43.0448 77.2941 42.9354 77.5677 43.0448 77.7975L45.4976 82.9893C45.9189 83.8811 45.5359 84.9461 44.646 85.3673C44.511 85.4311 44.3706 85.4767 44.2302 85.5041C44.0351 85.5114 43.8399 85.5187 43.643 85.5241C43.0612 85.4457 42.5324 85.0828 42.2643 84.5157L38.8797 77.3343C38.7903 77.1464 38.577 77.0534 38.3782 77.1173L38.3672 77.1209C38.1265 77.1975 38.0062 77.4619 38.1046 77.6917C38.7338 79.1579 40.7398 83.8938 40.7398 83.8938C40.9604 84.4172 40.9148 84.988 40.6614 85.4494C40.4772 85.7904 40.1781 86.0731 39.7933 86.2372C38.8852 86.6201 37.8347 86.1971 37.4518 85.2871L37.3387 85.019L34.6471 78.6637C34.5723 78.4886 34.379 78.3993 34.1985 78.4576C33.9997 78.5214 33.8939 78.7384 33.9669 78.9336L35.8798 84.0616C35.9637 84.2823 35.9984 84.512 35.9911 84.7345C35.9728 85.4403 35.5333 86.0986 34.8312 86.3612C33.9048 86.7058 32.8763 86.2354 32.5317 85.3126L31.6326 82.8981C31.6326 82.8981 31.0527 81.3863 30.8776 80.8757C30.3397 79.3074 29.5792 79.0503 29.2747 78.8825C29.1963 78.8388 29.1653 78.7366 29.1999 78.6527C29.4425 78.0747 29.5555 77.2832 29.2017 76.2839C28.9774 75.6511 28.2297 75.0164 27.6024 74.7994C27.5094 74.7666 27.4529 74.6718 27.4784 74.577C27.5696 74.2214 27.5769 73.5284 27.4237 72.9138C27.1356 71.7576 26.2675 70.8823 25.146 70.7401C25.0256 70.7255 24.9545 70.5996 25.0019 70.4866C25.1351 70.1693 25.208 69.8228 25.208 69.4635C25.208 69.2648 25.1861 69.0605 25.1387 68.8563C24.8159 67.4703 23.4209 66.6114 22.0185 66.8594L18.3147 67.5122H18.3038C17.6327 67.6308 16.9598 67.3189 16.6042 66.739C15.7452 65.3421 15.0632 64.0073 14.383 62.4098C11.5983 55.8502 10.7485 48.2749 12.5503 40.3896C15.51 27.4382 25.7259 17.3098 38.6955 14.4285C54.53 10.9126 69.108 18.0812 76.6104 30.1189C70.7474 22.2336 61.3576 17.1275 50.777 17.1275C35.4786 17.1275 22.6714 27.8084 19.4107 42.1202L19.4071 42.1147Z" fill="url(#paint0_linear_403_1299)"/>
<path d="M81.1493 55.9633C79.5299 63.6517 75.3976 70.4137 69.6532 75.3502C65.6959 78.7513 60.9727 81.288 55.7773 82.663L55.7627 82.6666C54.9202 82.8909 54.0302 82.5426 53.5634 81.804C53.474 81.6636 53.3828 81.5177 53.288 81.37C52.4601 80.0607 51.4717 78.4996 50.4851 76.9423C49.9946 76.1654 49.5022 75.3922 49.0335 74.6518C47.529 72.2847 46.2361 70.2587 45.8112 69.6168C44.5894 67.7731 43.8982 67.629 40.4351 67.629C34.2987 67.629 32.4331 62.7892 32.4331 62.1491C32.4331 61.509 32.6392 60.7303 33.9868 60.7303H47.3339C49.132 60.7303 49.6171 60.7649 50.3775 61.7679C51.1398 62.7691 55.3542 69.615 59.0889 69.615C62.4535 69.615 69.9413 62.6724 71.3163 53.051C71.6336 54.6795 71.7996 56.3591 71.7996 58.0751C71.7996 62.8384 70.523 67.319 68.2782 71.2216C68.2235 71.32 68.1651 71.4149 68.1086 71.5115C68.5061 71.2289 68.8964 70.9389 69.2775 70.638C74.8377 67.2315 79.0886 62.0615 81.1529 55.9597L81.1493 55.9633Z" fill="url(#paint1_linear_403_1299)"/>
<path d="M24.6676 71.5262L19.7755 72.3888C18.7628 72.5674 18.0866 73.5331 18.2652 74.5458L18.2725 74.5871C18.4511 75.5998 19.4168 76.276 20.4294 76.0974L25.3215 75.2348C26.3342 75.0562 27.0104 74.0905 26.8318 73.0779L26.8245 73.0366C26.646 72.0239 25.6803 71.3477 24.6676 71.5262Z" fill="#0384D8"/>
<path d="M26.6047 75.4798L22.5585 76.1933C21.5458 76.3718 20.8696 77.3375 21.0482 78.3502L21.0555 78.3915C21.234 79.4042 22.1997 80.0804 23.2124 79.9018L27.2586 79.1884C28.2713 79.0098 28.9475 78.0441 28.7689 77.0314L28.7616 76.9901C28.5831 75.9775 27.6174 75.3013 26.6047 75.4798Z" fill="#0384D8"/>
<path d="M28.2333 79.4853L24.8732 80.0778C23.8605 80.2564 23.1843 81.2221 23.3629 82.2348L23.3702 82.2761C23.5487 83.2887 24.5144 83.9649 25.5271 83.7864L28.8873 83.1939C29.8999 83.0153 30.5761 82.0496 30.3976 81.0369L30.3903 80.9956C30.2117 79.9829 29.246 79.3068 28.2333 79.4853Z" fill="#0089D1"/>
<path d="M22.3308 67.5846L18.3348 68.2892C17.3222 68.4678 16.646 69.4335 16.8245 70.4462L16.8318 70.4875C17.0104 71.5002 17.9761 72.1764 18.9888 71.9978L22.9847 71.2932C23.9974 71.1146 24.6736 70.1489 24.495 69.1363L24.4877 69.095C24.3091 68.0823 23.3434 67.4061 22.3308 67.5846Z" fill="#0384D8"/>
<path d="M92.6362 31.0617C92.6362 30.4799 92.7529 29.9748 92.9864 29.5481C93.4915 28.4229 94.7717 27.6843 96.0136 27.6843H105.562C110.958 27.6843 115.227 29.5864 115.227 35.4092C115.227 37.6996 114.062 39.5233 112.083 40.6101C114.49 41.5803 115.809 43.9875 115.809 46.5096C115.809 52.5658 111.111 54.7395 105.872 54.7395H93.6064C93.1414 54.7395 92.6362 54.2344 92.6362 53.7694V31.0617ZM104.747 38.3981C106.494 38.3981 107.698 37.3896 107.698 35.6025C107.698 34.7107 107.426 34.0105 106.882 33.5454C106.301 33.1187 105.602 32.8853 104.747 32.8853H97.7606C98.8858 32.8853 99.8961 33.777 99.8961 34.9423V37.2711C99.8961 37.893 100.478 38.3963 101.061 38.3963H104.749L104.747 38.3981ZM105.097 49.5003C106.999 49.5003 108.241 48.4517 108.241 46.5114C108.241 44.571 106.921 43.444 105.097 43.444H97.7606C98.8858 43.444 99.8961 44.3376 99.8961 45.5011V48.335C99.8961 48.9951 100.439 49.4985 101.061 49.4985H105.099L105.097 49.5003Z" fill="#00317D"/>
<path d="M120.118 31.1C120.118 29.198 121.593 27.7227 123.496 27.7227H139.334C139.955 27.7227 140.342 28.1111 140.342 28.7311V32.5735C140.342 32.8452 140.264 33.0786 140.07 33.2336C139.877 33.4269 139.644 33.5054 139.334 33.5054H125.011C126.176 33.5054 127.146 34.4372 127.146 35.6007V37.231C127.146 37.8912 127.652 38.4346 128.312 38.4346H136.773C137.393 38.4346 137.782 38.823 137.782 39.4431V42.9371C137.782 43.5188 137.355 43.9456 136.773 43.9456H125.011C126.098 43.9456 127.146 44.8391 127.146 45.9643V47.7898C127.146 48.4499 127.652 48.9934 128.312 48.9934H139.645C140.306 48.9934 140.654 49.3435 140.654 50.0018V53.8059C140.654 54.1159 140.576 54.3493 140.382 54.5043C140.189 54.6976 139.917 54.7761 139.645 54.7761H121.092C120.627 54.7761 120.122 54.2709 120.122 53.8059V31.0982L120.118 31.1Z" fill="#00317D"/>
<path d="M155.248 55.1662C150.241 55.1662 143.76 53.2642 143.448 47.3648C143.448 47.1314 143.526 46.9381 143.719 46.7831C143.874 46.628 144.07 46.5496 144.301 46.5496H149.464C149.619 46.5496 149.774 46.5496 149.891 46.5879C150.007 46.6262 150.084 46.6663 150.201 46.7046C150.394 46.8213 150.589 46.9764 150.861 47.2481C151.714 48.8784 153.5 49.3835 155.247 49.3835C156.138 49.3835 157.187 49.3452 158.002 48.9568C158.429 48.8018 158.779 48.5684 159.089 48.2201C159.399 47.91 159.554 47.4833 159.554 46.9782C159.554 45.5412 158.312 45.1144 157.147 44.726C156.72 44.571 156.177 44.416 155.593 44.261C150.585 43.3291 144.143 42.0489 144.143 35.6043C144.143 29.6264 149.887 27.3743 154.973 27.3743C156.797 27.3743 158.582 27.646 160.329 28.2678C163.046 29.393 165.918 31.8002 166.114 34.9441C166.114 35.1374 166.035 35.3325 165.88 35.5258C165.687 35.7192 165.492 35.7976 165.298 35.7976H159.864C159.321 35.7976 158.894 35.5641 158.584 35.0991C158.429 34.5557 158.04 34.0907 157.38 33.7022C156.682 33.3521 155.867 33.1588 154.973 33.1588C153.848 33.1588 152.566 33.3138 151.867 34.284C151.674 34.594 151.557 34.9824 151.557 35.4493C151.557 36.186 151.946 36.7696 152.723 37.1963C153.5 37.623 154.935 38.0497 157.07 38.4765C162.04 39.4466 167.045 40.6885 167.045 46.628C167.045 52.9542 160.524 55.1681 155.245 55.1681L155.248 55.1662Z" fill="#00317D"/>
<path d="M190.805 27.6843C191.387 27.6843 191.814 28.0728 191.814 28.6545V33.002C191.814 33.5837 191.387 33.9722 190.805 33.9722H181.8C182.887 33.9722 184.012 34.8657 184.012 35.9909V53.7694C184.012 54.0411 183.896 54.2745 183.702 54.4295C183.509 54.6228 183.276 54.7012 183.004 54.7012H177.608C177.336 54.7012 177.103 54.6228 176.909 54.4295C176.716 54.2745 176.599 54.0411 176.599 53.7694V35.1375C176.599 34.4773 176.094 33.9722 175.434 33.9722H169.806C169.263 33.9722 168.796 33.5454 168.796 33.002V31.0216C168.796 29.1979 170.35 27.6843 172.173 27.6843H190.805Z" fill="#00317D"/>
<path d="M92.6782 68.0811C92.6636 67.8039 92.6636 67.3936 92.6636 66.8246C92.6636 66.2557 92.6636 65.8308 92.6782 65.5536C92.7657 62.8364 94.6367 61.5361 97.2226 61.5361C99.8085 61.5361 101.665 62.8364 101.752 65.5536C101.767 66.1225 101.782 66.5474 101.782 66.8246C101.782 68.3583 101.782 69.9521 100.496 71.0463C99.6918 71.7192 98.6104 72.0548 97.2226 72.0548C94.6221 72.0548 92.7657 70.8275 92.6782 68.0811ZM98.9168 67.9936C98.9314 67.4246 98.9459 67.0289 98.9459 66.7809C98.9459 66.5329 98.9314 66.1371 98.9168 65.5973C98.8876 64.5013 98.3916 63.7263 97.2226 63.7263C96.0537 63.7263 95.5431 64.4867 95.5139 65.5973C95.4993 65.8745 95.4993 66.2684 95.4993 66.7809C95.4993 67.2933 95.4993 67.7164 95.5139 67.9936C95.5431 69.0896 96.0683 69.8646 97.2226 69.8646C98.377 69.8646 98.8876 69.075 98.9168 67.9936Z" fill="#0384D8"/>
<path d="M103.461 62.9532C103.461 62.6176 103.622 62.2657 103.855 62.0323C103.972 61.9301 104.103 61.8426 104.264 61.7697C104.424 61.7113 104.57 61.6821 104.73 61.6821H110.59C110.779 61.6821 110.969 61.8718 110.969 62.0614V63.6097C110.969 63.7118 110.925 63.7994 110.852 63.8577C110.779 63.9307 110.692 63.9598 110.59 63.9598H105.33C105.768 63.9598 106.135 64.31 106.135 64.7495V65.9913H109.641C109.889 65.9913 110.021 66.1226 110.021 66.3707V67.9043C110.021 68.021 109.992 68.1086 109.919 68.1669C109.846 68.2399 109.758 68.269 109.641 68.269H105.33C105.753 68.269 106.135 68.6192 106.135 69.0441V71.4987C106.135 71.6008 106.105 71.6883 106.032 71.7613C105.974 71.8342 105.887 71.8634 105.77 71.8634H103.826C103.607 71.8634 103.461 71.7175 103.461 71.4987V62.9514V62.9532Z" fill="#0384D8"/>
<path d="M112.536 62.9532C112.536 62.6176 112.696 62.2657 112.93 62.0323C113.046 61.9301 113.178 61.8426 113.338 61.7697C113.499 61.7113 113.644 61.6821 113.805 61.6821H119.664C119.854 61.6821 120.043 61.8718 120.043 62.0614V63.6097C120.043 63.7118 120 63.7994 119.927 63.8577C119.854 63.9307 119.766 63.9598 119.664 63.9598H114.405C114.843 63.9598 115.209 64.31 115.209 64.7495V65.9913H118.716C118.964 65.9913 119.095 66.1226 119.095 66.3707V67.9043C119.095 68.021 119.066 68.1086 118.993 68.1669C118.92 68.2399 118.833 68.269 118.716 68.269H114.405C114.828 68.269 115.209 68.6192 115.209 69.0441V71.4987C115.209 71.6008 115.18 71.6883 115.107 71.7613C115.049 71.8342 114.961 71.8634 114.844 71.8634H112.9C112.682 71.8634 112.536 71.7175 112.536 71.4987V62.9514V62.9532Z" fill="#0384D8"/>
<path d="M121.595 62.9676C121.595 62.2509 122.151 61.6965 122.866 61.6965H128.828C129.061 61.6965 129.207 61.8424 129.207 62.0758V63.522C129.207 63.6241 129.178 63.7116 129.105 63.77C129.032 63.8429 128.944 63.8721 128.828 63.8721H123.437C123.875 63.8721 124.241 64.2222 124.241 64.6617V65.2745C124.241 65.5225 124.431 65.7267 124.679 65.7267H127.865C128.098 65.7267 128.244 65.8726 128.244 66.106V67.4209C128.244 67.6397 128.084 67.8002 127.865 67.8002H123.437C123.846 67.8002 124.241 68.1357 124.241 68.5606V69.2481C124.241 69.4962 124.431 69.7004 124.679 69.7004H128.946C129.194 69.7004 129.326 69.8317 129.326 70.0797V71.5113C129.326 71.628 129.296 71.7155 129.223 71.7739C129.15 71.8468 129.048 71.876 128.946 71.876H121.962C121.787 71.876 121.597 71.6863 121.597 71.5113V62.9639L121.595 62.9676Z" fill="#0384D8"/>
<path d="M137.304 71.8797C137.027 71.8797 136.837 71.7484 136.72 71.5004L135.23 68.5789C135.143 68.4185 135.012 68.3455 134.837 68.3455H132.922C133.17 68.3455 133.359 68.433 133.505 68.5935C133.637 68.7686 133.71 68.9437 133.71 69.1187V71.5295C133.71 71.6317 133.68 71.7192 133.607 71.7776C133.535 71.8505 133.447 71.8797 133.345 71.8797H131.343C131.182 71.8797 130.978 71.7046 130.978 71.5295V62.9677C130.978 62.251 131.534 61.7112 132.249 61.7112H135.347C137.598 61.7112 139.438 62.6321 139.438 65.0429C139.438 66.2265 138.898 67.1766 137.875 67.7601C137.802 67.8039 137.758 67.8623 137.758 67.9352C137.743 68.0081 137.758 68.0519 137.787 68.0957L139.627 71.4274C139.656 71.4858 139.671 71.5441 139.671 71.5879C139.671 71.6609 139.642 71.7338 139.583 71.7922C139.51 71.8505 139.438 71.8797 139.365 71.8797H137.304ZM136.266 64.1074C136.018 63.9032 135.712 63.801 135.331 63.801H132.818C133.241 63.801 133.622 64.1366 133.622 64.5761V65.7596C133.622 65.8763 133.666 65.9785 133.753 66.066C133.826 66.1535 133.928 66.1973 134.06 66.1973H135.331C136.091 66.1973 136.616 65.818 136.616 65.0283C136.616 64.6344 136.5 64.3263 136.266 64.1074Z" fill="#0384D8"/>
<path d="M144.186 62.9969C144.186 62.2948 144.757 61.7258 145.457 61.7258H148.379C151.052 61.7258 152.909 62.9677 152.967 65.6995C152.982 65.8308 152.982 65.9913 152.982 66.1809V67.4374C152.982 67.6271 152.982 67.7875 152.967 67.9188C152.879 70.5777 151.375 71.9071 148.452 71.9071H144.551C144.332 71.9071 144.186 71.7612 144.186 71.5424V62.9951V62.9969ZM148.379 69.7333C149.635 69.7333 150.162 69.1188 150.191 67.8915C150.206 67.7602 150.206 67.5997 150.221 67.41V66.1973C150.206 66.0223 150.206 65.8618 150.191 65.7305C150.162 64.5178 149.533 63.9032 148.306 63.9032H146.114C146.522 63.9032 146.918 64.2388 146.918 64.6637V69.2811C146.918 69.4124 146.962 69.5145 147.049 69.602C147.122 69.6896 147.239 69.7333 147.37 69.7333H148.379Z" fill="#17BFF0"/>
<path d="M154.707 62.9678C154.707 62.2512 155.263 61.6968 155.978 61.6968H161.939C162.173 61.6968 162.319 61.8427 162.319 62.0761V63.5222C162.319 63.6243 162.289 63.7119 162.216 63.7702C162.144 63.8432 162.056 63.8724 161.939 63.8724H156.549C156.986 63.8724 157.353 64.2225 157.353 64.662V65.2747C157.353 65.5227 157.543 65.727 157.791 65.727H160.976C161.21 65.727 161.356 65.8729 161.356 66.1063V67.4211C161.356 67.64 161.195 67.8004 160.976 67.8004H156.549C156.957 67.8004 157.353 68.136 157.353 68.5609V69.2484C157.353 69.4964 157.543 69.7006 157.791 69.7006H162.058C162.306 69.7006 162.437 69.8319 162.437 70.08V71.5115C162.437 71.6282 162.408 71.7157 162.335 71.7741C162.262 71.847 162.16 71.8762 162.058 71.8762H155.073C154.898 71.8762 154.709 71.6866 154.709 71.5115V62.9642L154.707 62.9678Z" fill="#17BFF0"/>
<path d="M163.198 71.6026C163.198 71.5296 163.198 71.4858 163.212 71.4713L166.602 62.1489C166.704 61.8717 166.909 61.7258 167.186 61.7258H169.451C169.728 61.7258 169.932 61.8717 170.034 62.1489L173.424 71.4713C173.439 71.4858 173.439 71.5296 173.439 71.6026C173.439 71.763 173.293 71.9089 173.133 71.9089H171.247C170.999 71.9089 170.838 71.8068 170.751 71.588L169.99 69.5273C168.778 69.9795 167.463 70.171 166.177 70.171H165.681C165.842 70.2002 165.958 70.3023 166.061 70.4482C166.163 70.6087 166.177 70.8129 166.09 71.0318L165.886 71.5861C165.798 71.805 165.638 71.9071 165.39 71.9071H163.504C163.431 71.9071 163.358 71.8779 163.285 71.8196C163.227 71.7466 163.198 71.6737 163.198 71.6007V71.6026ZM168.311 64.2825L166.996 68.0811C167.742 68.0374 168.763 67.8623 169.436 67.4976L168.311 64.2825Z" fill="#17BFF0"/>
<path d="M174.624 62.9386C174.624 62.2657 175.223 61.6821 175.895 61.6821H177.035C177.137 61.6821 177.225 61.7113 177.283 61.7843C177.356 61.8572 177.385 61.9447 177.385 62.0469V69.1334C177.385 69.2064 177.429 69.3085 177.502 69.4106C177.575 69.5273 177.692 69.5857 177.838 69.5857H181.753C181.855 69.5857 181.957 69.6149 182.03 69.6732C182.103 69.7462 182.132 69.8337 182.132 69.9504V71.4987C182.132 71.6154 182.103 71.7029 182.03 71.7613C181.957 71.8342 181.855 71.8634 181.753 71.8634H174.987C174.812 71.8634 174.623 71.6737 174.623 71.4987V62.9368L174.624 62.9386Z" fill="#17BFF0"/>
<path d="M187.348 72.0549C185.453 72.0549 182.998 71.3346 182.882 69.1024C182.882 69.0149 182.911 68.9401 182.984 68.8818C183.042 68.8234 183.117 68.7943 183.204 68.7943H185.159C185.218 68.7943 185.278 68.7943 185.322 68.8088C185.365 68.8234 185.395 68.838 185.438 68.8526C185.511 68.8964 185.586 68.9547 185.688 69.0587C186.011 69.6751 186.687 69.8665 187.348 69.8665C187.685 69.8665 188.083 69.852 188.391 69.7042C188.553 69.6459 188.684 69.5565 188.803 69.4252C188.92 69.3085 188.98 69.1462 188.98 68.9547C188.98 68.4113 188.509 68.249 188.068 68.1031C187.906 68.0447 187.701 67.9846 187.481 67.9262C185.586 67.5743 183.146 67.0892 183.146 64.6492C183.146 62.3861 185.32 61.5344 187.246 61.5344C187.937 61.5344 188.611 61.6365 189.273 61.8718C190.302 62.2985 191.389 63.2085 191.464 64.3993C191.464 64.4723 191.434 64.547 191.376 64.62C191.303 64.6929 191.228 64.7221 191.155 64.7221H189.098C188.892 64.7221 188.732 64.6346 188.613 64.4577C188.555 64.2516 188.407 64.0747 188.157 63.9288C187.893 63.7975 187.585 63.7228 187.246 63.7228C186.819 63.7228 186.334 63.7811 186.069 64.1495C185.996 64.2662 185.951 64.4139 185.951 64.5908C185.951 64.8698 186.098 65.0905 186.392 65.2528C186.686 65.4151 187.229 65.5756 188.037 65.7379C189.917 66.1044 191.814 66.5749 191.814 68.8234C191.814 71.2178 189.344 72.0567 187.348 72.0567V72.0549Z" fill="#17BFF0"/>
</g>
<defs>
<linearGradient id="paint0_linear_403_1299" x1="17.2643" y1="66.6059" x2="73.6853" y2="27.2084" gradientUnits="userSpaceOnUse">
<stop stop-color="#00317D"/>
<stop offset="0.94" stop-color="#17BFF0"/>
</linearGradient>
<linearGradient id="paint1_linear_403_1299" x1="45.2258" y1="73.2184" x2="69.8957" y2="52.6918" gradientUnits="userSpaceOnUse">
<stop stop-color="#0384D8"/>
<stop offset="0.72" stop-color="#17BFF0"/>
</linearGradient>
<clipPath id="clip0_403_1299">
<rect width="203" height="100" fill="white"/>
</clipPath>
</defs>
</svg>
