<svg  viewBox="0 0 413 543" fill="none" xmlns="http://www.w3.org/2000/svg">
<path d="M196.333 142C196.333 130.801 192.362 121.239 184.419 113.315C176.477 105.391 166.892 101.429 155.667 101.429C144.441 101.429 134.857 105.391 126.914 113.315C118.971 121.239 115 130.801 115 142C115 153.199 118.971 162.761 126.914 170.685C134.857 178.609 144.441 182.571 155.667 182.571C166.892 182.571 176.477 178.609 184.419 170.685C192.362 162.761 196.333 153.199 196.333 142ZM318.333 223.143C318.333 217.649 316.321 212.894 312.297 208.88C308.273 204.865 303.507 202.857 298 202.857C292.493 202.857 287.727 204.865 283.703 208.88C279.679 212.894 277.667 217.649 277.667 223.143C277.667 228.743 279.652 233.523 283.624 237.486C287.595 241.448 292.387 243.429 298 243.429C303.613 243.429 308.405 241.448 312.376 237.486C316.348 233.523 318.333 228.743 318.333 223.143ZM318.333 60.8572C318.333 55.3631 316.321 50.6087 312.297 46.5938C308.273 42.5789 303.507 40.5715 298 40.5715C292.493 40.5715 287.727 42.5789 283.703 46.5938C279.679 50.6087 277.667 55.3631 277.667 60.8572C277.667 66.4569 279.652 71.2378 283.624 75.1998C287.595 79.1619 292.387 81.1429 298 81.1429C303.613 81.1429 308.405 79.1619 312.376 75.1998C316.348 71.2378 318.333 66.4569 318.333 60.8572ZM257.333 127.578V156.897C257.333 157.954 256.963 158.984 256.221 159.988C255.48 160.992 254.633 161.546 253.68 161.652L229.057 165.455C227.892 169.153 226.198 173.168 223.974 177.5C227.575 182.571 232.34 188.647 238.271 195.726C239.012 196.888 239.383 197.944 239.383 198.895C239.383 200.163 239.012 201.167 238.271 201.906C235.835 205.076 231.467 209.804 225.165 216.09C218.864 222.377 214.707 225.52 212.695 225.52C211.53 225.52 210.418 225.15 209.359 224.411L191.091 210.147C187.173 212.155 183.095 213.792 178.859 215.06C177.694 226.471 176.477 234.659 175.206 239.625C174.464 242.161 172.876 243.429 170.44 243.429H140.893C139.728 243.429 138.669 243.032 137.716 242.24C136.763 241.448 136.234 240.523 136.128 239.467L132.474 215.219C128.873 214.162 124.902 212.525 120.56 210.306L101.815 224.411C101.074 225.15 100.015 225.52 98.638 225.52C97.4731 225.52 96.3611 225.098 95.3021 224.252C80.0521 210.2 72.4271 201.748 72.4271 198.895C72.4271 197.944 72.7977 196.941 73.5391 195.884C74.5981 194.405 76.7691 191.605 80.0521 187.484C83.3351 183.364 85.8238 180.141 87.5182 177.817C85.0825 173.168 83.2292 168.836 81.9583 164.821L57.8125 161.018C56.7535 160.912 55.8533 160.41 55.112 159.512C54.3707 158.614 54 157.584 54 156.422V127.103C54 126.046 54.3707 125.016 55.112 124.012C55.8533 123.009 56.7005 122.454 57.6536 122.348L82.276 118.545C83.441 114.847 85.1354 110.832 87.3594 106.5C83.7587 101.429 78.9931 95.3535 73.0625 88.2746C72.3212 87.1124 71.9505 86.0559 71.9505 85.105C71.9505 83.8371 72.3212 82.7806 73.0625 81.9353C75.3924 78.7657 79.7344 74.064 86.0885 67.8304C92.4427 61.5968 96.6259 58.48 98.638 58.48C99.803 58.48 100.915 58.8498 101.974 59.5893L120.242 73.8527C123.843 71.951 127.92 70.2605 132.474 68.7813C133.639 57.3706 134.857 49.2352 136.128 44.3751C136.869 41.8393 138.457 40.5715 140.893 40.5715H170.44C171.605 40.5715 172.664 40.9677 173.617 41.7601C174.57 42.5525 175.1 43.477 175.206 44.5335L178.859 68.7813C182.46 69.8379 186.431 71.4755 190.773 73.6943L209.518 59.5893C210.365 58.8498 211.424 58.48 212.695 58.48C213.86 58.48 214.972 58.9026 216.031 59.7478C231.281 73.7999 238.906 82.2523 238.906 85.105C238.906 85.9502 238.536 86.9539 237.794 88.1161C236.523 89.8066 234.299 92.6593 231.122 96.6742C227.945 100.689 225.562 103.859 223.974 106.183C226.41 111.255 228.21 115.586 229.375 119.179L253.521 122.824C254.58 123.035 255.48 123.59 256.221 124.488C256.963 125.386 257.333 126.416 257.333 127.578ZM359 212.049V234.237C359 235.927 351.11 237.565 335.331 239.15C334.06 242.002 332.471 244.749 330.565 247.391C335.966 259.33 338.667 266.62 338.667 269.261C338.667 269.684 338.455 270.054 338.031 270.371C325.111 277.872 318.545 281.623 318.333 281.623C317.486 281.623 315.05 279.14 311.026 274.174C307.002 269.208 304.248 265.616 302.766 263.397C300.648 263.609 299.059 263.714 298 263.714C296.941 263.714 295.352 263.609 293.234 263.397C291.752 265.616 288.998 269.208 284.974 274.174C280.95 279.14 278.514 281.623 277.667 281.623C277.455 281.623 270.889 277.872 257.969 270.371C257.545 270.054 257.333 269.684 257.333 269.261C257.333 266.62 260.034 259.33 265.435 247.391C263.529 244.749 261.94 242.002 260.669 239.15C244.89 237.565 237 235.927 237 234.237V212.049C237 210.359 244.89 208.721 260.669 207.136C262.046 204.072 263.635 201.325 265.435 198.895C260.034 186.956 257.333 179.666 257.333 177.025C257.333 176.602 257.545 176.232 257.969 175.915C258.392 175.704 260.246 174.647 263.529 172.746C266.812 170.844 269.936 169.048 272.901 167.357C275.866 165.667 277.455 164.821 277.667 164.821C278.514 164.821 280.95 167.278 284.974 172.191C288.998 177.104 291.752 180.67 293.234 182.888C295.352 182.677 296.941 182.571 298 182.571C299.059 182.571 300.648 182.677 302.766 182.888C308.167 175.387 313.038 169.47 317.38 165.138L318.333 164.821C318.757 164.821 325.323 168.519 338.031 175.915C338.455 176.232 338.667 176.602 338.667 177.025C338.667 179.666 335.966 186.956 330.565 198.895C332.365 201.325 333.954 204.072 335.331 207.136C351.11 208.721 359 210.359 359 212.049ZM359 49.7634V71.951C359 73.6414 351.11 75.2791 335.331 76.8639C334.06 79.7166 332.471 82.4636 330.565 85.105C335.966 97.044 338.667 104.334 338.667 106.976C338.667 107.398 338.455 107.768 338.031 108.085C325.111 115.586 318.545 119.337 318.333 119.337C317.486 119.337 315.05 116.854 311.026 111.888C307.002 106.923 304.248 103.33 302.766 101.112C300.648 101.323 299.059 101.429 298 101.429C296.941 101.429 295.352 101.323 293.234 101.112C291.752 103.33 288.998 106.923 284.974 111.888C280.95 116.854 278.514 119.337 277.667 119.337C277.455 119.337 270.889 115.586 257.969 108.085C257.545 107.768 257.333 107.398 257.333 106.976C257.333 104.334 260.034 97.044 265.435 85.105C263.529 82.4636 261.94 79.7166 260.669 76.8639C244.89 75.2791 237 73.6414 237 71.951V49.7634C237 48.073 244.89 46.4353 260.669 44.8505C262.046 41.7865 263.635 39.0395 265.435 36.6094C260.034 24.6704 257.333 17.3803 257.333 14.7389C257.333 14.3163 257.545 13.9465 257.969 13.6295C258.392 13.4182 260.246 12.3617 263.529 10.4599C266.812 8.55809 269.936 6.76196 272.901 5.07148C275.866 3.381 277.455 2.53577 277.667 2.53577C278.514 2.53577 280.95 4.99224 284.974 9.90519C288.998 14.8181 291.752 18.384 293.234 20.6027C295.352 20.3914 296.941 20.2858 298 20.2858C299.059 20.2858 300.648 20.3914 302.766 20.6027C308.167 13.1012 313.038 7.18458 317.38 2.85273L318.333 2.53577C318.757 2.53577 325.323 6.23368 338.031 13.6295C338.455 13.9465 338.667 14.3163 338.667 14.7389C338.667 17.3803 335.966 24.6704 330.565 36.6094C332.365 39.0395 333.954 41.7865 335.331 44.8505C351.11 46.4353 359 48.073 359 49.7634Z" fill="white"/>
<path d="M335.046 295.436L304.329 264.756C297.531 258.026 288.347 254.25 278.775 254.25H132.418C122.867 254.25 113.64 258.053 106.864 264.756L76.1469 295.436H0V460.242H41.3C52.6575 460.242 61.8209 451.09 61.8855 439.811H67.7578L122.351 489.053C142.291 505.23 169.975 505.617 190.496 491.502C198.563 498.463 207.274 501.75 217.019 501.75C228.763 501.75 239.798 496.98 248.51 486.281C262.771 491.889 279.614 487.957 289.81 475.453L306.717 454.635C310.331 450.188 312.589 445.096 313.751 439.811H351.115C351.179 451.09 360.407 460.242 371.7 460.242H413V295.436H335.046ZM30.975 439.617C25.2962 439.617 20.65 434.977 20.65 429.305C20.65 423.633 25.2962 418.992 30.975 418.992C36.6537 418.992 41.3 423.633 41.3 429.305C41.3 435.041 36.6537 439.617 30.975 439.617ZM282.647 435.17L265.804 455.924C263.997 458.115 260.771 458.502 258.512 456.697L243.089 444.193L223.73 467.719C219.858 472.424 214.05 470.812 212.114 469.266L188.367 448.963L178.3 461.338C169.33 472.359 153.004 474.035 142.614 465.592L79.8251 408.873H61.95V326.309H88.9886L128.804 286.605C130.095 286.09 131.192 285.639 132.483 285.123H169.072L144.098 308.004C125.126 325.342 124.029 354.604 141.259 373.295C150.81 383.736 180.752 399.85 206.758 376.131L212.05 371.297L281.872 427.887C284.067 429.691 284.389 432.979 282.647 435.17ZM351.05 408.873H306.394C304.91 407.068 303.232 405.393 301.425 403.91L235.152 350.156L243.218 342.809C247.413 338.941 247.735 332.432 243.864 328.242L236.83 320.701C232.958 316.512 226.44 316.254 222.246 320.057L186.624 352.67C180.494 358.277 170.04 358.729 164.297 352.67C158.295 346.289 158.811 336.492 165.071 330.82L207.403 292.084C212.179 287.701 218.374 285.316 224.827 285.316L278.84 285.188C280.195 285.188 281.485 285.703 282.389 286.67L322.205 326.373H351.05V408.873ZM382.025 439.617C376.346 439.617 371.7 434.977 371.7 429.305C371.7 423.633 376.346 418.992 382.025 418.992C387.704 418.992 392.35 423.633 392.35 429.305C392.35 435.041 387.704 439.617 382.025 439.617Z" fill="white"/>
</svg>
